<?xml version="1.0" encoding="UTF-8"?>
<svg xmlns="http://www.w3.org/2000/svg" xmlns:xlink="http://www.w3.org/1999/xlink" width="414.185" height="45.681" viewBox="0 0 414.185 45.681">
<defs>
<clipPath id="clip-0">
<path clip-rule="nonzero" d="M 0 0 L 145 0 L 145 45.679688 L 0 45.679688 Z M 0 0 "/>
</clipPath>
<clipPath id="clip-1">
<path clip-rule="nonzero" d="M 0 26 L 20 26 L 20 45.679688 L 0 45.679688 Z M 0 26 "/>
</clipPath>
<clipPath id="clip-2">
<path clip-rule="nonzero" d="M 26 26 L 48 26 L 48 45.679688 L 26 45.679688 Z M 26 26 "/>
</clipPath>
<clipPath id="clip-3">
<path clip-rule="nonzero" d="M 54 26 L 76 26 L 76 45.679688 L 54 45.679688 Z M 54 26 "/>
</clipPath>
<clipPath id="clip-4">
<path clip-rule="nonzero" d="M 83 26 L 105 26 L 105 45.679688 L 83 45.679688 Z M 83 26 "/>
</clipPath>
<clipPath id="clip-5">
<path clip-rule="nonzero" d="M 111 26 L 133 26 L 133 45.679688 L 111 45.679688 Z M 111 26 "/>
</clipPath>
<clipPath id="clip-6">
<path clip-rule="nonzero" d="M 128 0 L 287 0 L 287 45.679688 L 128 45.679688 Z M 128 0 "/>
</clipPath>
<clipPath id="clip-7">
<path clip-rule="nonzero" d="M 139 26 L 162 26 L 162 45.679688 L 139 45.679688 Z M 139 26 "/>
</clipPath>
<clipPath id="clip-8">
<path clip-rule="nonzero" d="M 168 26 L 190 26 L 190 45.679688 L 168 45.679688 Z M 168 26 "/>
</clipPath>
<clipPath id="clip-9">
<path clip-rule="nonzero" d="M 196 26 L 218 26 L 218 45.679688 L 196 45.679688 Z M 196 26 "/>
</clipPath>
<clipPath id="clip-10">
<path clip-rule="nonzero" d="M 224 26 L 247 26 L 247 45.679688 L 224 45.679688 Z M 224 26 "/>
</clipPath>
<clipPath id="clip-11">
<path clip-rule="nonzero" d="M 253 26 L 275 26 L 275 45.679688 L 253 45.679688 Z M 253 26 "/>
</clipPath>
<clipPath id="clip-12">
<path clip-rule="nonzero" d="M 269 0 L 414.183594 0 L 414.183594 45.679688 L 269 45.679688 Z M 269 0 "/>
</clipPath>
<clipPath id="clip-13">
<path clip-rule="nonzero" d="M 394 0 L 414.183594 0 L 414.183594 20 L 394 20 Z M 394 0 "/>
</clipPath>
<clipPath id="clip-14">
<path clip-rule="nonzero" d="M 281 26 L 303 26 L 303 45.679688 L 281 45.679688 Z M 281 26 "/>
</clipPath>
<clipPath id="clip-15">
<path clip-rule="nonzero" d="M 309 26 L 332 26 L 332 45.679688 L 309 45.679688 Z M 309 26 "/>
</clipPath>
<clipPath id="clip-16">
<path clip-rule="nonzero" d="M 338 26 L 360 26 L 360 45.679688 L 338 45.679688 Z M 338 26 "/>
</clipPath>
<clipPath id="clip-17">
<path clip-rule="nonzero" d="M 366 26 L 388 26 L 388 45.679688 L 366 45.679688 Z M 366 26 "/>
</clipPath>
<clipPath id="clip-18">
<path clip-rule="nonzero" d="M 394 26 L 414.183594 26 L 414.183594 45.679688 L 394 45.679688 Z M 394 26 "/>
</clipPath>
</defs>
<g clip-path="url(#clip-0)">
<path fill="none" stroke-width="0.99628" stroke-linecap="butt" stroke-linejoin="miter" stroke="rgb(43.035889%, 41.566467%, 61.001587%)" stroke-opacity="1" stroke-miterlimit="10" d="M 59.882188 22.343906 L -59.883437 22.343906 C -62.633437 22.343906 -64.863906 20.113437 -64.863906 17.359531 L -64.863906 -17.363125 C -64.863906 -20.113125 -62.633437 -22.343594 -59.883437 -22.343594 L 59.882188 -22.343594 C 62.632188 -22.343594 64.862656 -20.113125 64.862656 -17.363125 L 64.862656 17.359531 C 64.862656 20.113437 62.632188 22.343906 59.882188 22.343906 Z M 59.882188 22.343906 " transform="matrix(1, 0, 0, -1, 65.36, 22.84)"/>
</g>
<path fill-rule="nonzero" fill="rgb(79.998779%, 79.998779%, 100%)" fill-opacity="1" stroke-width="0.3985" stroke-linecap="butt" stroke-linejoin="miter" stroke="rgb(79.998779%, 79.998779%, 100%)" stroke-opacity="1" stroke-miterlimit="10" d="M 61.67675 -0.00096875 C 61.67675 2.752938 59.446281 4.9795 56.692375 4.9795 C 53.942375 4.9795 51.711906 2.752938 51.711906 -0.00096875 C 51.711906 -2.750969 53.942375 -4.981437 56.692375 -4.981437 C 59.446281 -4.981437 61.67675 -2.750969 61.67675 -0.00096875 Z M 61.67675 -0.00096875 " transform="matrix(1, 0, 0, -1, 8.667, 8.667)"/>
<path fill-rule="nonzero" fill="rgb(100%, 50%, 0%)" fill-opacity="1" stroke-width="0.3985" stroke-linecap="butt" stroke-linejoin="miter" stroke="rgb(100%, 50%, 0%)" stroke-opacity="1" stroke-miterlimit="10" d="M 4.981437 -0.00096875 C 4.981437 2.752938 2.750969 4.9795 0.00096875 4.9795 C -2.752938 4.9795 -4.9795 2.752938 -4.9795 -0.00096875 C -4.9795 -2.750969 -2.752938 -4.981437 0.00096875 -4.981437 C 2.750969 -4.981437 4.981437 -2.750969 4.981437 -0.00096875 Z M 4.981437 -0.00096875 " transform="matrix(1, 0, 0, -1, 8.667, 8.667)"/>
<path fill-rule="nonzero" fill="rgb(7.817078%, 64.082336%, 90.036011%)" fill-opacity="1" stroke-width="0.3985" stroke-linecap="butt" stroke-linejoin="miter" stroke="rgb(7.817078%, 64.082336%, 90.036011%)" stroke-opacity="1" stroke-miterlimit="10" d="M 33.329094 -0.00096875 C 33.329094 2.752938 31.098625 4.9795 28.348625 4.9795 C 25.594719 4.9795 23.36425 2.752938 23.36425 -0.00096875 C 23.36425 -2.750969 25.594719 -4.981437 28.348625 -4.981437 C 31.098625 -4.981437 33.329094 -2.750969 33.329094 -0.00096875 Z M 33.329094 -0.00096875 " transform="matrix(1, 0, 0, -1, 8.667, 8.667)"/>
<path fill-rule="nonzero" fill="rgb(71.136475%, 14.471436%, 11.114502%)" fill-opacity="1" stroke-width="0.3985" stroke-linecap="butt" stroke-linejoin="miter" stroke="rgb(71.136475%, 14.471436%, 11.114502%)" stroke-opacity="1" stroke-miterlimit="10" d="M 90.0205 -0.00096875 C 90.0205 2.752938 87.790031 4.9795 85.040031 4.9795 C 82.290031 4.9795 80.059562 2.752938 80.059562 -0.00096875 C 80.059562 -2.750969 82.290031 -4.981437 85.040031 -4.981437 C 87.790031 -4.981437 90.0205 -2.750969 90.0205 -0.00096875 Z M 90.0205 -0.00096875 " transform="matrix(1, 0, 0, -1, 8.667, 8.667)"/>
<path fill-rule="nonzero" fill="rgb(23.200989%, 48.974609%, 14.593506%)" fill-opacity="1" stroke-width="0.3985" stroke-linecap="butt" stroke-linejoin="miter" stroke="rgb(23.200989%, 48.974609%, 14.593506%)" stroke-opacity="1" stroke-miterlimit="10" d="M 118.368156 -0.00096875 C 118.368156 2.752938 116.137687 4.9795 113.387687 4.9795 C 110.637687 4.9795 108.407219 2.752938 108.407219 -0.00096875 C 108.407219 -2.750969 110.637687 -4.981437 113.387687 -4.981437 C 116.137687 -4.981437 118.368156 -2.750969 118.368156 -0.00096875 Z M 118.368156 -0.00096875 " transform="matrix(1, 0, 0, -1, 8.667, 8.667)"/>
<path fill-rule="nonzero" fill="rgb(69.999695%, 69.999695%, 69.999695%)" fill-opacity="1" d="M 8.667969 32.03125 C 5.914062 32.03125 3.6875 34.261719 3.6875 37.015625 C 3.6875 39.765625 5.914062 41.996094 8.667969 41.996094 C 11.417969 41.996094 13.648438 39.765625 13.648438 37.015625 C 13.648438 34.261719 11.417969 32.03125 8.667969 32.03125 Z M 8.667969 32.03125 "/>
<g clip-path="url(#clip-1)">
<path fill="none" stroke-width="0.3985" stroke-linecap="butt" stroke-linejoin="miter" stroke="rgb(69.999695%, 69.999695%, 69.999695%)" stroke-opacity="1" stroke-miterlimit="10" d="M 0.00096875 -23.36425 C -2.752938 -23.36425 -4.9795 -25.594719 -4.9795 -28.348625 C -4.9795 -31.098625 -2.752938 -33.329094 0.00096875 -33.329094 C 2.750969 -33.329094 4.981437 -31.098625 4.981437 -28.348625 C 4.981437 -25.594719 2.750969 -23.36425 0.00096875 -23.36425 Z M 0.00096875 -23.36425 " transform="matrix(1, 0, 0, -1, 8.667, 8.667)"/>
</g>
<path fill-rule="nonzero" fill="rgb(69.999695%, 69.999695%, 69.999695%)" fill-opacity="1" d="M 37.015625 32.03125 C 34.261719 32.03125 32.03125 34.261719 32.03125 37.015625 C 32.03125 39.765625 34.261719 41.996094 37.015625 41.996094 C 39.765625 41.996094 41.996094 39.765625 41.996094 37.015625 C 41.996094 34.261719 39.765625 32.03125 37.015625 32.03125 Z M 37.015625 32.03125 "/>
<g clip-path="url(#clip-2)">
<path fill="none" stroke-width="0.3985" stroke-linecap="butt" stroke-linejoin="miter" stroke="rgb(69.999695%, 69.999695%, 69.999695%)" stroke-opacity="1" stroke-miterlimit="10" d="M 28.348625 -23.36425 C 25.594719 -23.36425 23.36425 -25.594719 23.36425 -28.348625 C 23.36425 -31.098625 25.594719 -33.329094 28.348625 -33.329094 C 31.098625 -33.329094 33.329094 -31.098625 33.329094 -28.348625 C 33.329094 -25.594719 31.098625 -23.36425 28.348625 -23.36425 Z M 28.348625 -23.36425 " transform="matrix(1, 0, 0, -1, 8.667, 8.667)"/>
</g>
<path fill-rule="nonzero" fill="rgb(69.999695%, 69.999695%, 69.999695%)" fill-opacity="1" d="M 65.359375 32.03125 C 62.609375 32.03125 60.378906 34.261719 60.378906 37.015625 C 60.378906 39.765625 62.609375 41.996094 65.359375 41.996094 C 68.113281 41.996094 70.34375 39.765625 70.34375 37.015625 C 70.34375 34.261719 68.113281 32.03125 65.359375 32.03125 Z M 65.359375 32.03125 "/>
<g clip-path="url(#clip-3)">
<path fill="none" stroke-width="0.3985" stroke-linecap="butt" stroke-linejoin="miter" stroke="rgb(69.999695%, 69.999695%, 69.999695%)" stroke-opacity="1" stroke-miterlimit="10" d="M 56.692375 -23.36425 C 53.942375 -23.36425 51.711906 -25.594719 51.711906 -28.348625 C 51.711906 -31.098625 53.942375 -33.329094 56.692375 -33.329094 C 59.446281 -33.329094 61.67675 -31.098625 61.67675 -28.348625 C 61.67675 -25.594719 59.446281 -23.36425 56.692375 -23.36425 Z M 56.692375 -23.36425 " transform="matrix(1, 0, 0, -1, 8.667, 8.667)"/>
</g>
<path fill-rule="nonzero" fill="rgb(69.999695%, 69.999695%, 69.999695%)" fill-opacity="1" d="M 93.707031 32.03125 C 90.957031 32.03125 88.726562 34.261719 88.726562 37.015625 C 88.726562 39.765625 90.957031 41.996094 93.707031 41.996094 C 96.457031 41.996094 98.6875 39.765625 98.6875 37.015625 C 98.6875 34.261719 96.457031 32.03125 93.707031 32.03125 Z M 93.707031 32.03125 "/>
<g clip-path="url(#clip-4)">
<path fill="none" stroke-width="0.3985" stroke-linecap="butt" stroke-linejoin="miter" stroke="rgb(69.999695%, 69.999695%, 69.999695%)" stroke-opacity="1" stroke-miterlimit="10" d="M 85.040031 -23.36425 C 82.290031 -23.36425 80.059562 -25.594719 80.059562 -28.348625 C 80.059562 -31.098625 82.290031 -33.329094 85.040031 -33.329094 C 87.790031 -33.329094 90.0205 -31.098625 90.0205 -28.348625 C 90.0205 -25.594719 87.790031 -23.36425 85.040031 -23.36425 Z M 85.040031 -23.36425 " transform="matrix(1, 0, 0, -1, 8.667, 8.667)"/>
</g>
<path fill-rule="nonzero" fill="rgb(69.999695%, 69.999695%, 69.999695%)" fill-opacity="1" d="M 122.054688 32.03125 C 119.304688 32.03125 117.074219 34.261719 117.074219 37.015625 C 117.074219 39.765625 119.304688 41.996094 122.054688 41.996094 C 124.804688 41.996094 127.035156 39.765625 127.035156 37.015625 C 127.035156 34.261719 124.804688 32.03125 122.054688 32.03125 Z M 122.054688 32.03125 "/>
<g clip-path="url(#clip-5)">
<path fill="none" stroke-width="0.3985" stroke-linecap="butt" stroke-linejoin="miter" stroke="rgb(69.999695%, 69.999695%, 69.999695%)" stroke-opacity="1" stroke-miterlimit="10" d="M 113.387687 -23.36425 C 110.637687 -23.36425 108.407219 -25.594719 108.407219 -28.348625 C 108.407219 -31.098625 110.637687 -33.329094 113.387687 -33.329094 C 116.137687 -33.329094 118.368156 -31.098625 118.368156 -28.348625 C 118.368156 -25.594719 116.137687 -23.36425 113.387687 -23.36425 Z M 113.387687 -23.36425 " transform="matrix(1, 0, 0, -1, 8.667, 8.667)"/>
</g>
<path fill="none" stroke-width="0.19925" stroke-linecap="butt" stroke-linejoin="miter" stroke="rgb(50%, 50%, 50%)" stroke-opacity="1" stroke-miterlimit="10" d="M 52.059562 -2.317375 L 5.180656 -25.758781 M 3.665031 -3.665031 L 23.165031 -23.165031 M 32.008781 -3.665031 L 51.512687 -23.165031 M 85.040031 -5.180656 L 85.040031 -23.165031 M 113.387687 -5.180656 L 113.387687 -23.165031 M 61.325187 -2.317375 L 108.208 -25.758781 M 81.375969 -3.665031 L 61.872062 -23.165031 M 109.723625 -3.665031 L 90.219719 -23.165031 M 32.981437 -2.317375 L 79.860344 -25.758781 M 0.00096875 -5.180656 L 0.00096875 -23.165031 M 28.348625 -5.180656 L 28.348625 -23.165031 " transform="matrix(1, 0, 0, -1, 8.667, 8.667)"/>
<g clip-path="url(#clip-6)">
<path fill="none" stroke-width="0.99628" stroke-linecap="butt" stroke-linejoin="miter" stroke="rgb(43.035889%, 41.566467%, 61.001587%)" stroke-opacity="1" stroke-miterlimit="10" d="M 201.616562 22.343906 L 81.850938 22.343906 C 79.100938 22.343906 76.870469 20.113437 76.870469 17.359531 L 76.870469 -17.363125 C 76.870469 -20.113125 79.100938 -22.343594 81.850938 -22.343594 L 201.616562 -22.343594 C 204.366562 -22.343594 206.597031 -20.113125 206.597031 -17.363125 L 206.597031 17.359531 C 206.597031 20.113437 204.366562 22.343906 201.616562 22.343906 Z M 201.616562 22.343906 " transform="matrix(1, 0, 0, -1, 65.36, 22.84)"/>
</g>
<path fill-rule="nonzero" fill="rgb(79.998779%, 79.998779%, 100%)" fill-opacity="1" stroke-width="0.3985" stroke-linecap="butt" stroke-linejoin="miter" stroke="rgb(79.998779%, 79.998779%, 100%)" stroke-opacity="1" stroke-miterlimit="10" d="M 61.674219 -0.00096875 C 61.674219 2.752938 59.44375 4.9795 56.69375 4.9795 C 53.94375 4.9795 51.713281 2.752938 51.713281 -0.00096875 C 51.713281 -2.750969 53.94375 -4.981437 56.69375 -4.981437 C 59.44375 -4.981437 61.674219 -2.750969 61.674219 -0.00096875 Z M 61.674219 -0.00096875 " transform="matrix(1, 0, 0, -1, 150.4, 8.667)"/>
<path fill-rule="nonzero" fill="rgb(100%, 50%, 0%)" fill-opacity="1" stroke-width="0.3985" stroke-linecap="butt" stroke-linejoin="miter" stroke="rgb(100%, 50%, 0%)" stroke-opacity="1" stroke-miterlimit="10" d="M 4.982812 -0.00096875 C 4.982812 2.752938 2.752344 4.9795 -0.0015625 4.9795 C -2.751563 4.9795 -4.982031 2.752938 -4.982031 -0.00096875 C -4.982031 -2.750969 -2.751563 -4.981437 -0.0015625 -4.981437 C 2.752344 -4.981437 4.982812 -2.750969 4.982812 -0.00096875 Z M 4.982812 -0.00096875 " transform="matrix(1, 0, 0, -1, 150.4, 8.667)"/>
<path fill-rule="nonzero" fill="rgb(7.817078%, 64.082336%, 90.036011%)" fill-opacity="1" stroke-width="0.3985" stroke-linecap="butt" stroke-linejoin="miter" stroke="rgb(7.817078%, 64.082336%, 90.036011%)" stroke-opacity="1" stroke-miterlimit="10" d="M 33.326562 -0.00096875 C 33.326562 2.752938 31.096094 4.9795 28.346094 4.9795 C 25.596094 4.9795 23.365625 2.752938 23.365625 -0.00096875 C 23.365625 -2.750969 25.596094 -4.981437 28.346094 -4.981437 C 31.096094 -4.981437 33.326562 -2.750969 33.326562 -0.00096875 Z M 33.326562 -0.00096875 " transform="matrix(1, 0, 0, -1, 150.4, 8.667)"/>
<path fill-rule="nonzero" fill="rgb(71.136475%, 14.471436%, 11.114502%)" fill-opacity="1" stroke-width="0.3985" stroke-linecap="butt" stroke-linejoin="miter" stroke="rgb(71.136475%, 14.471436%, 11.114502%)" stroke-opacity="1" stroke-miterlimit="10" d="M 90.021875 -0.00096875 C 90.021875 2.752938 87.791406 4.9795 85.041406 4.9795 C 82.2875 4.9795 80.060937 2.752938 80.060937 -0.00096875 C 80.060937 -2.750969 82.2875 -4.981437 85.041406 -4.981437 C 87.791406 -4.981437 90.021875 -2.750969 90.021875 -0.00096875 Z M 90.021875 -0.00096875 " transform="matrix(1, 0, 0, -1, 150.4, 8.667)"/>
<path fill-rule="nonzero" fill="rgb(23.200989%, 48.974609%, 14.593506%)" fill-opacity="1" stroke-width="0.3985" stroke-linecap="butt" stroke-linejoin="miter" stroke="rgb(23.200989%, 48.974609%, 14.593506%)" stroke-opacity="1" stroke-miterlimit="10" d="M 118.369531 -0.00096875 C 118.369531 2.752938 116.139062 4.9795 113.389062 4.9795 C 110.635156 4.9795 108.404687 2.752938 108.404687 -0.00096875 C 108.404687 -2.750969 110.635156 -4.981437 113.389062 -4.981437 C 116.139062 -4.981437 118.369531 -2.750969 118.369531 -0.00096875 Z M 118.369531 -0.00096875 " transform="matrix(1, 0, 0, -1, 150.4, 8.667)"/>
<path fill-rule="nonzero" fill="rgb(69.999695%, 69.999695%, 69.999695%)" fill-opacity="1" d="M 150.398438 32.03125 C 147.648438 32.03125 145.417969 34.261719 145.417969 37.015625 C 145.417969 39.765625 147.648438 41.996094 150.398438 41.996094 C 153.152344 41.996094 155.382812 39.765625 155.382812 37.015625 C 155.382812 34.261719 153.152344 32.03125 150.398438 32.03125 Z M 150.398438 32.03125 "/>
<g clip-path="url(#clip-7)">
<path fill="none" stroke-width="0.3985" stroke-linecap="butt" stroke-linejoin="miter" stroke="rgb(69.999695%, 69.999695%, 69.999695%)" stroke-opacity="1" stroke-miterlimit="10" d="M -0.0015625 -23.36425 C -2.751563 -23.36425 -4.982031 -25.594719 -4.982031 -28.348625 C -4.982031 -31.098625 -2.751563 -33.329094 -0.0015625 -33.329094 C 2.752344 -33.329094 4.982812 -31.098625 4.982812 -28.348625 C 4.982812 -25.594719 2.752344 -23.36425 -0.0015625 -23.36425 Z M -0.0015625 -23.36425 " transform="matrix(1, 0, 0, -1, 150.4, 8.667)"/>
</g>
<path fill-rule="nonzero" fill="rgb(69.999695%, 69.999695%, 69.999695%)" fill-opacity="1" d="M 178.746094 32.03125 C 175.996094 32.03125 173.765625 34.261719 173.765625 37.015625 C 173.765625 39.765625 175.996094 41.996094 178.746094 41.996094 C 181.496094 41.996094 183.726562 39.765625 183.726562 37.015625 C 183.726562 34.261719 181.496094 32.03125 178.746094 32.03125 Z M 178.746094 32.03125 "/>
<g clip-path="url(#clip-8)">
<path fill="none" stroke-width="0.3985" stroke-linecap="butt" stroke-linejoin="miter" stroke="rgb(69.999695%, 69.999695%, 69.999695%)" stroke-opacity="1" stroke-miterlimit="10" d="M 28.346094 -23.36425 C 25.596094 -23.36425 23.365625 -25.594719 23.365625 -28.348625 C 23.365625 -31.098625 25.596094 -33.329094 28.346094 -33.329094 C 31.096094 -33.329094 33.326562 -31.098625 33.326562 -28.348625 C 33.326562 -25.594719 31.096094 -23.36425 28.346094 -23.36425 Z M 28.346094 -23.36425 " transform="matrix(1, 0, 0, -1, 150.4, 8.667)"/>
</g>
<path fill-rule="nonzero" fill="rgb(69.999695%, 69.999695%, 69.999695%)" fill-opacity="1" d="M 207.09375 32.03125 C 204.34375 32.03125 202.113281 34.261719 202.113281 37.015625 C 202.113281 39.765625 204.34375 41.996094 207.09375 41.996094 C 209.84375 41.996094 212.074219 39.765625 212.074219 37.015625 C 212.074219 34.261719 209.84375 32.03125 207.09375 32.03125 Z M 207.09375 32.03125 "/>
<g clip-path="url(#clip-9)">
<path fill="none" stroke-width="0.3985" stroke-linecap="butt" stroke-linejoin="miter" stroke="rgb(69.999695%, 69.999695%, 69.999695%)" stroke-opacity="1" stroke-miterlimit="10" d="M 56.69375 -23.36425 C 53.94375 -23.36425 51.713281 -25.594719 51.713281 -28.348625 C 51.713281 -31.098625 53.94375 -33.329094 56.69375 -33.329094 C 59.44375 -33.329094 61.674219 -31.098625 61.674219 -28.348625 C 61.674219 -25.594719 59.44375 -23.36425 56.69375 -23.36425 Z M 56.69375 -23.36425 " transform="matrix(1, 0, 0, -1, 150.4, 8.667)"/>
</g>
<path fill-rule="nonzero" fill="rgb(69.999695%, 69.999695%, 69.999695%)" fill-opacity="1" d="M 235.441406 32.03125 C 232.6875 32.03125 230.460938 34.261719 230.460938 37.015625 C 230.460938 39.765625 232.6875 41.996094 235.441406 41.996094 C 238.191406 41.996094 240.421875 39.765625 240.421875 37.015625 C 240.421875 34.261719 238.191406 32.03125 235.441406 32.03125 Z M 235.441406 32.03125 "/>
<g clip-path="url(#clip-10)">
<path fill="none" stroke-width="0.3985" stroke-linecap="butt" stroke-linejoin="miter" stroke="rgb(69.999695%, 69.999695%, 69.999695%)" stroke-opacity="1" stroke-miterlimit="10" d="M 85.041406 -23.36425 C 82.2875 -23.36425 80.060937 -25.594719 80.060937 -28.348625 C 80.060937 -31.098625 82.2875 -33.329094 85.041406 -33.329094 C 87.791406 -33.329094 90.021875 -31.098625 90.021875 -28.348625 C 90.021875 -25.594719 87.791406 -23.36425 85.041406 -23.36425 Z M 85.041406 -23.36425 " transform="matrix(1, 0, 0, -1, 150.4, 8.667)"/>
</g>
<path fill-rule="nonzero" fill="rgb(69.999695%, 69.999695%, 69.999695%)" fill-opacity="1" d="M 263.789062 32.03125 C 261.035156 32.03125 258.804688 34.261719 258.804688 37.015625 C 258.804688 39.765625 261.035156 41.996094 263.789062 41.996094 C 266.539062 41.996094 268.769531 39.765625 268.769531 37.015625 C 268.769531 34.261719 266.539062 32.03125 263.789062 32.03125 Z M 263.789062 32.03125 "/>
<g clip-path="url(#clip-11)">
<path fill="none" stroke-width="0.3985" stroke-linecap="butt" stroke-linejoin="miter" stroke="rgb(69.999695%, 69.999695%, 69.999695%)" stroke-opacity="1" stroke-miterlimit="10" d="M 113.389062 -23.36425 C 110.635156 -23.36425 108.404687 -25.594719 108.404687 -28.348625 C 108.404687 -31.098625 110.635156 -33.329094 113.389062 -33.329094 C 116.139062 -33.329094 118.369531 -31.098625 118.369531 -28.348625 C 118.369531 -25.594719 116.139062 -23.36425 113.389062 -23.36425 Z M 113.389062 -23.36425 " transform="matrix(1, 0, 0, -1, 150.4, 8.667)"/>
</g>
<path fill="none" stroke-width="0.19925" stroke-linecap="butt" stroke-linejoin="miter" stroke="rgb(50%, 50%, 50%)" stroke-opacity="1" stroke-miterlimit="10" d="M 52.060937 -2.317375 L 5.182031 -25.758781 M 3.6625 -3.665031 L 23.166406 -23.165031 M 32.010156 -3.665031 L 51.514062 -23.165031 M 85.041406 -5.180656 L 85.041406 -23.165031 M 113.389062 -5.180656 L 113.389062 -23.165031 M 61.326562 -2.317375 L 108.205469 -25.758781 M 81.377344 -3.665031 L 61.873437 -23.165031 M 109.725 -3.665031 L 90.221094 -23.165031 M 32.978906 -2.317375 L 79.861719 -25.758781 M -0.0015625 -5.180656 L -0.0015625 -23.165031 M 28.346094 -5.180656 L 28.346094 -23.165031 " transform="matrix(1, 0, 0, -1, 150.4, 8.667)"/>
<path fill="none" stroke-width="1.59404" stroke-linecap="butt" stroke-linejoin="miter" stroke="rgb(71.136475%, 14.471436%, 11.114502%)" stroke-opacity="1" stroke-miterlimit="10" d="M 85.041406 -5.180656 L 85.041406 -23.165031 " transform="matrix(1, 0, 0, -1, 150.4, 8.667)"/>
<path fill="none" stroke-width="0.3985" stroke-linecap="butt" stroke-linejoin="miter" stroke="rgb(12.156677%, 59.999084%, 40.391541%)" stroke-opacity="1" stroke-miterlimit="10" d="M 65.362656 0.00015625 L 75.975938 0.00015625 " transform="matrix(1, 0, 0, -1, 65.36, 22.84)"/>
<path fill="none" stroke-width="0.3985" stroke-linecap="round" stroke-linejoin="round" stroke="rgb(12.156677%, 59.999084%, 40.391541%)" stroke-opacity="1" stroke-miterlimit="10" d="M -2.072632 2.390781 C -1.693726 0.957187 -0.849976 0.2775 0.00158625 0.00015625 C -0.849976 -0.277188 -1.693726 -0.956875 -2.072632 -2.390469 " transform="matrix(1, 0, 0, -1, 141.53357, 22.84)"/>
<g clip-path="url(#clip-12)">
<path fill="none" stroke-width="0.99628" stroke-linecap="butt" stroke-linejoin="miter" stroke="rgb(43.035889%, 41.566467%, 61.001587%)" stroke-opacity="1" stroke-miterlimit="10" d="M 343.350937 22.343906 L 223.585312 22.343906 C 220.835312 22.343906 218.604844 20.113437 218.604844 17.359531 L 218.604844 -17.363125 C 218.604844 -20.113125 220.835312 -22.343594 223.585312 -22.343594 L 343.350937 -22.343594 C 346.100937 -22.343594 348.331406 -20.113125 348.331406 -17.363125 L 348.331406 17.359531 C 348.331406 20.113437 346.100937 22.343906 343.350937 22.343906 Z M 343.350937 22.343906 " transform="matrix(1, 0, 0, -1, 65.36, 22.84)"/>
</g>
<path fill-rule="nonzero" fill="rgb(79.998779%, 79.998779%, 100%)" fill-opacity="1" stroke-width="0.3985" stroke-linecap="butt" stroke-linejoin="miter" stroke="rgb(79.998779%, 79.998779%, 100%)" stroke-opacity="1" stroke-miterlimit="10" d="M 61.676594 -0.00096875 C 61.676594 2.752938 59.446125 4.9795 56.692219 4.9795 C 53.942219 4.9795 51.71175 2.752938 51.71175 -0.00096875 C 51.71175 -2.750969 53.942219 -4.981437 56.692219 -4.981437 C 59.446125 -4.981437 61.676594 -2.750969 61.676594 -0.00096875 Z M 61.676594 -0.00096875 " transform="matrix(1, 0, 0, -1, 292.132, 8.667)"/>
<path fill-rule="nonzero" fill="rgb(100%, 50%, 0%)" fill-opacity="1" stroke-width="0.3985" stroke-linecap="butt" stroke-linejoin="miter" stroke="rgb(100%, 50%, 0%)" stroke-opacity="1" stroke-miterlimit="10" d="M 4.981281 -0.00096875 C 4.981281 2.752938 2.750812 4.9795 0.0008125 4.9795 C -2.753094 4.9795 -4.979656 2.752938 -4.979656 -0.00096875 C -4.979656 -2.750969 -2.753094 -4.981437 0.0008125 -4.981437 C 2.750812 -4.981437 4.981281 -2.750969 4.981281 -0.00096875 Z M 4.981281 -0.00096875 " transform="matrix(1, 0, 0, -1, 292.132, 8.667)"/>
<path fill-rule="nonzero" fill="rgb(7.817078%, 64.082336%, 90.036011%)" fill-opacity="1" stroke-width="0.3985" stroke-linecap="butt" stroke-linejoin="miter" stroke="rgb(7.817078%, 64.082336%, 90.036011%)" stroke-opacity="1" stroke-miterlimit="10" d="M 33.328937 -0.00096875 C 33.328937 2.752938 31.098469 4.9795 28.348469 4.9795 C 25.594562 4.9795 23.364094 2.752938 23.364094 -0.00096875 C 23.364094 -2.750969 25.594562 -4.981437 28.348469 -4.981437 C 31.098469 -4.981437 33.328937 -2.750969 33.328937 -0.00096875 Z M 33.328937 -0.00096875 " transform="matrix(1, 0, 0, -1, 292.132, 8.667)"/>
<path fill-rule="nonzero" fill="rgb(71.136475%, 14.471436%, 11.114502%)" fill-opacity="1" stroke-width="0.3985" stroke-linecap="butt" stroke-linejoin="miter" stroke="rgb(71.136475%, 14.471436%, 11.114502%)" stroke-opacity="1" stroke-miterlimit="10" d="M 90.020344 -0.00096875 C 90.020344 2.752938 87.789875 4.9795 85.039875 4.9795 C 82.289875 4.9795 80.059406 2.752938 80.059406 -0.00096875 C 80.059406 -2.750969 82.289875 -4.981437 85.039875 -4.981437 C 87.789875 -4.981437 90.020344 -2.750969 90.020344 -0.00096875 Z M 90.020344 -0.00096875 " transform="matrix(1, 0, 0, -1, 292.132, 8.667)"/>
<path fill-rule="nonzero" fill="rgb(23.200989%, 48.974609%, 14.593506%)" fill-opacity="1" d="M 410.5 8.667969 C 410.5 5.914062 408.269531 3.6875 405.519531 3.6875 C 402.769531 3.6875 400.539062 5.914062 400.539062 8.667969 C 400.539062 11.417969 402.769531 13.648438 405.519531 13.648438 C 408.269531 13.648438 410.5 11.417969 410.5 8.667969 Z M 410.5 8.667969 "/>
<g clip-path="url(#clip-13)">
<path fill="none" stroke-width="0.3985" stroke-linecap="butt" stroke-linejoin="miter" stroke="rgb(23.200989%, 48.974609%, 14.593506%)" stroke-opacity="1" stroke-miterlimit="10" d="M 118.368 -0.00096875 C 118.368 2.752938 116.137531 4.9795 113.387531 4.9795 C 110.637531 4.9795 108.407062 2.752938 108.407062 -0.00096875 C 108.407062 -2.750969 110.637531 -4.981437 113.387531 -4.981437 C 116.137531 -4.981437 118.368 -2.750969 118.368 -0.00096875 Z M 118.368 -0.00096875 " transform="matrix(1, 0, 0, -1, 292.132, 8.667)"/>
</g>
<path fill-rule="nonzero" fill="rgb(69.999695%, 69.999695%, 69.999695%)" fill-opacity="1" d="M 292.132812 32.03125 C 289.378906 32.03125 287.152344 34.261719 287.152344 37.015625 C 287.152344 39.765625 289.378906 41.996094 292.132812 41.996094 C 294.882812 41.996094 297.113281 39.765625 297.113281 37.015625 C 297.113281 34.261719 294.882812 32.03125 292.132812 32.03125 Z M 292.132812 32.03125 "/>
<g clip-path="url(#clip-14)">
<path fill="none" stroke-width="0.3985" stroke-linecap="butt" stroke-linejoin="miter" stroke="rgb(69.999695%, 69.999695%, 69.999695%)" stroke-opacity="1" stroke-miterlimit="10" d="M 0.0008125 -23.36425 C -2.753094 -23.36425 -4.979656 -25.594719 -4.979656 -28.348625 C -4.979656 -31.098625 -2.753094 -33.329094 0.0008125 -33.329094 C 2.750812 -33.329094 4.981281 -31.098625 4.981281 -28.348625 C 4.981281 -25.594719 2.750812 -23.36425 0.0008125 -23.36425 Z M 0.0008125 -23.36425 " transform="matrix(1, 0, 0, -1, 292.132, 8.667)"/>
</g>
<path fill-rule="nonzero" fill="rgb(69.999695%, 69.999695%, 69.999695%)" fill-opacity="1" d="M 320.480469 32.03125 C 317.726562 32.03125 315.496094 34.261719 315.496094 37.015625 C 315.496094 39.765625 317.726562 41.996094 320.480469 41.996094 C 323.230469 41.996094 325.460938 39.765625 325.460938 37.015625 C 325.460938 34.261719 323.230469 32.03125 320.480469 32.03125 Z M 320.480469 32.03125 "/>
<g clip-path="url(#clip-15)">
<path fill="none" stroke-width="0.3985" stroke-linecap="butt" stroke-linejoin="miter" stroke="rgb(69.999695%, 69.999695%, 69.999695%)" stroke-opacity="1" stroke-miterlimit="10" d="M 28.348469 -23.36425 C 25.594562 -23.36425 23.364094 -25.594719 23.364094 -28.348625 C 23.364094 -31.098625 25.594562 -33.329094 28.348469 -33.329094 C 31.098469 -33.329094 33.328937 -31.098625 33.328937 -28.348625 C 33.328937 -25.594719 31.098469 -23.36425 28.348469 -23.36425 Z M 28.348469 -23.36425 " transform="matrix(1, 0, 0, -1, 292.132, 8.667)"/>
</g>
<path fill-rule="nonzero" fill="rgb(69.999695%, 69.999695%, 69.999695%)" fill-opacity="1" d="M 348.824219 32.03125 C 346.074219 32.03125 343.84375 34.261719 343.84375 37.015625 C 343.84375 39.765625 346.074219 41.996094 348.824219 41.996094 C 351.578125 41.996094 353.808594 39.765625 353.808594 37.015625 C 353.808594 34.261719 351.578125 32.03125 348.824219 32.03125 Z M 348.824219 32.03125 "/>
<g clip-path="url(#clip-16)">
<path fill="none" stroke-width="0.3985" stroke-linecap="butt" stroke-linejoin="miter" stroke="rgb(69.999695%, 69.999695%, 69.999695%)" stroke-opacity="1" stroke-miterlimit="10" d="M 56.692219 -23.36425 C 53.942219 -23.36425 51.71175 -25.594719 51.71175 -28.348625 C 51.71175 -31.098625 53.942219 -33.329094 56.692219 -33.329094 C 59.446125 -33.329094 61.676594 -31.098625 61.676594 -28.348625 C 61.676594 -25.594719 59.446125 -23.36425 56.692219 -23.36425 Z M 56.692219 -23.36425 " transform="matrix(1, 0, 0, -1, 292.132, 8.667)"/>
</g>
<path fill-rule="nonzero" fill="rgb(69.999695%, 69.999695%, 69.999695%)" fill-opacity="1" d="M 377.171875 32.03125 C 374.421875 32.03125 372.191406 34.261719 372.191406 37.015625 C 372.191406 39.765625 374.421875 41.996094 377.171875 41.996094 C 379.921875 41.996094 382.152344 39.765625 382.152344 37.015625 C 382.152344 34.261719 379.921875 32.03125 377.171875 32.03125 Z M 377.171875 32.03125 "/>
<g clip-path="url(#clip-17)">
<path fill="none" stroke-width="0.3985" stroke-linecap="butt" stroke-linejoin="miter" stroke="rgb(69.999695%, 69.999695%, 69.999695%)" stroke-opacity="1" stroke-miterlimit="10" d="M 85.039875 -23.36425 C 82.289875 -23.36425 80.059406 -25.594719 80.059406 -28.348625 C 80.059406 -31.098625 82.289875 -33.329094 85.039875 -33.329094 C 87.789875 -33.329094 90.020344 -31.098625 90.020344 -28.348625 C 90.020344 -25.594719 87.789875 -23.36425 85.039875 -23.36425 Z M 85.039875 -23.36425 " transform="matrix(1, 0, 0, -1, 292.132, 8.667)"/>
</g>
<path fill-rule="nonzero" fill="rgb(69.999695%, 69.999695%, 69.999695%)" fill-opacity="1" d="M 405.519531 32.03125 C 402.769531 32.03125 400.539062 34.261719 400.539062 37.015625 C 400.539062 39.765625 402.769531 41.996094 405.519531 41.996094 C 408.269531 41.996094 410.5 39.765625 410.5 37.015625 C 410.5 34.261719 408.269531 32.03125 405.519531 32.03125 Z M 405.519531 32.03125 "/>
<g clip-path="url(#clip-18)">
<path fill="none" stroke-width="0.3985" stroke-linecap="butt" stroke-linejoin="miter" stroke="rgb(69.999695%, 69.999695%, 69.999695%)" stroke-opacity="1" stroke-miterlimit="10" d="M 113.387531 -23.36425 C 110.637531 -23.36425 108.407062 -25.594719 108.407062 -28.348625 C 108.407062 -31.098625 110.637531 -33.329094 113.387531 -33.329094 C 116.137531 -33.329094 118.368 -31.098625 118.368 -28.348625 C 118.368 -25.594719 116.137531 -23.36425 113.387531 -23.36425 Z M 113.387531 -23.36425 " transform="matrix(1, 0, 0, -1, 292.132, 8.667)"/>
</g>
<path fill="none" stroke-width="0.19925" stroke-linecap="butt" stroke-linejoin="miter" stroke="rgb(50%, 50%, 50%)" stroke-opacity="1" stroke-miterlimit="10" d="M 52.059406 -2.317375 L 5.1805 -25.758781 M 3.664875 -3.665031 L 23.168781 -23.165031 M 32.008625 -3.665031 L 51.512531 -23.165031 M 85.039875 -5.180656 L 85.039875 -23.165031 M 113.387531 -5.180656 L 113.387531 -23.165031 M 61.328937 -2.317375 L 108.207844 -25.758781 M 81.375812 -3.665031 L 61.871906 -23.165031 M 109.723469 -3.665031 L 90.219562 -23.165031 M 32.981281 -2.317375 L 79.860187 -25.758781 M 0.0008125 -5.180656 L 0.0008125 -23.165031 M 28.348469 -5.180656 L 28.348469 -23.165031 " transform="matrix(1, 0, 0, -1, 292.132, 8.667)"/>
<path fill="none" stroke-width="1.59404" stroke-linecap="butt" stroke-linejoin="miter" stroke="rgb(71.136475%, 14.471436%, 11.114502%)" stroke-opacity="1" stroke-miterlimit="10" d="M 85.039875 -5.180656 L 85.039875 -23.165031 " transform="matrix(1, 0, 0, -1, 292.132, 8.667)"/>
<path fill="none" stroke-width="1.59404" stroke-linecap="butt" stroke-linejoin="miter" stroke="rgb(100%, 50%, 0%)" stroke-opacity="1" stroke-miterlimit="10" d="M 0.0008125 -5.180656 L 0.0008125 -23.165031 " transform="matrix(1, 0, 0, -1, 292.132, 8.667)"/>
<path fill="none" stroke-width="0.3985" stroke-linecap="butt" stroke-linejoin="miter" stroke="rgb(12.156677%, 59.999084%, 40.391541%)" stroke-opacity="1" stroke-miterlimit="10" d="M 207.097031 0.00015625 L 217.710312 0.00015625 " transform="matrix(1, 0, 0, -1, 65.36, 22.84)"/>
<path fill="none" stroke-width="0.3985" stroke-linecap="round" stroke-linejoin="round" stroke="rgb(12.156677%, 59.999084%, 40.391541%)" stroke-opacity="1" stroke-miterlimit="10" d="M -2.072297 2.390781 C -1.693391 0.957187 -0.849641 0.2775 0.00192125 0.00015625 C -0.849641 -0.277188 -1.693391 -0.956875 -2.072297 -2.390469 " transform="matrix(1, 0, 0, -1, 283.26761, 22.84)"/>
</svg>
