<?xml version="1.0" encoding="UTF-8"?>
<svg xmlns="http://www.w3.org/2000/svg" xmlns:xlink="http://www.w3.org/1999/xlink" width="697.65" height="215.76" viewBox="0 0 697.65 215.76">
<defs>
<clipPath id="clip-0">
<path clip-rule="nonzero" d="M 269 156 L 428 156 L 428 215.761719 L 269 215.761719 Z M 269 156 "/>
</clipPath>
<clipPath id="clip-1">
<path clip-rule="nonzero" d="M 281 196 L 303 196 L 303 215.761719 L 281 215.761719 Z M 281 196 "/>
</clipPath>
<clipPath id="clip-2">
<path clip-rule="nonzero" d="M 309 196 L 332 196 L 332 215.761719 L 309 215.761719 Z M 309 196 "/>
</clipPath>
<clipPath id="clip-3">
<path clip-rule="nonzero" d="M 338 196 L 360 196 L 360 215.761719 L 338 215.761719 Z M 338 196 "/>
</clipPath>
<clipPath id="clip-4">
<path clip-rule="nonzero" d="M 366 196 L 388 196 L 388 215.761719 L 366 215.761719 Z M 366 196 "/>
</clipPath>
<clipPath id="clip-5">
<path clip-rule="nonzero" d="M 394 196 L 417 196 L 417 215.761719 L 394 215.761719 Z M 394 196 "/>
</clipPath>
<clipPath id="clip-6">
<path clip-rule="nonzero" d="M 273 159 L 338 159 L 338 215.761719 L 273 215.761719 Z M 273 159 "/>
</clipPath>
<clipPath id="clip-7">
<path clip-rule="nonzero" d="M 411 156 L 570 156 L 570 215.761719 L 411 215.761719 Z M 411 156 "/>
</clipPath>
<clipPath id="clip-8">
<path clip-rule="nonzero" d="M 423 196 L 445 196 L 445 215.761719 L 423 215.761719 Z M 423 196 "/>
</clipPath>
<clipPath id="clip-9">
<path clip-rule="nonzero" d="M 451 196 L 473 196 L 473 215.761719 L 451 215.761719 Z M 451 196 "/>
</clipPath>
<clipPath id="clip-10">
<path clip-rule="nonzero" d="M 479 196 L 502 196 L 502 215.761719 L 479 215.761719 Z M 479 196 "/>
</clipPath>
<clipPath id="clip-11">
<path clip-rule="nonzero" d="M 508 196 L 530 196 L 530 215.761719 L 508 215.761719 Z M 508 196 "/>
</clipPath>
<clipPath id="clip-12">
<path clip-rule="nonzero" d="M 536 196 L 558 196 L 558 215.761719 L 536 215.761719 Z M 536 196 "/>
</clipPath>
<clipPath id="clip-13">
<path clip-rule="nonzero" d="M 414 159 L 480 159 L 480 215.761719 L 414 215.761719 Z M 414 159 "/>
</clipPath>
<clipPath id="clip-14">
<path clip-rule="nonzero" d="M 416 158 L 509 158 L 509 215.761719 L 416 215.761719 Z M 416 158 "/>
</clipPath>
<clipPath id="clip-15">
<path clip-rule="nonzero" d="M 553 156 L 697.648438 156 L 697.648438 215.761719 L 553 215.761719 Z M 553 156 "/>
</clipPath>
<clipPath id="clip-16">
<path clip-rule="nonzero" d="M 678 168 L 697.648438 168 L 697.648438 190 L 678 190 Z M 678 168 "/>
</clipPath>
<clipPath id="clip-17">
<path clip-rule="nonzero" d="M 564 196 L 587 196 L 587 215.761719 L 564 215.761719 Z M 564 196 "/>
</clipPath>
<clipPath id="clip-18">
<path clip-rule="nonzero" d="M 593 196 L 615 196 L 615 215.761719 L 593 215.761719 Z M 593 196 "/>
</clipPath>
<clipPath id="clip-19">
<path clip-rule="nonzero" d="M 621 196 L 643 196 L 643 215.761719 L 621 215.761719 Z M 621 196 "/>
</clipPath>
<clipPath id="clip-20">
<path clip-rule="nonzero" d="M 650 196 L 672 196 L 672 215.761719 L 650 215.761719 Z M 650 196 "/>
</clipPath>
<clipPath id="clip-21">
<path clip-rule="nonzero" d="M 678 196 L 697.648438 196 L 697.648438 215.761719 L 678 215.761719 Z M 678 196 "/>
</clipPath>
<clipPath id="clip-22">
<path clip-rule="nonzero" d="M 556 159 L 622 159 L 622 215.761719 L 556 215.761719 Z M 556 159 "/>
</clipPath>
<clipPath id="clip-23">
<path clip-rule="nonzero" d="M 558 158 L 651 158 L 651 215.761719 L 558 215.761719 Z M 558 158 "/>
</clipPath>
<clipPath id="clip-24">
<path clip-rule="nonzero" d="M 585 159 L 650 159 L 650 215.761719 L 585 215.761719 Z M 585 159 "/>
</clipPath>
</defs>
<path fill="none" stroke-width="0.99628" stroke-linecap="butt" stroke-linejoin="miter" stroke="rgb(8.042908%, 60.865784%, 32.264709%)" stroke-opacity="1" stroke-miterlimit="10" d="M 59.882188 22.340937 L -59.883437 22.340937 C -62.633437 22.340937 -64.863906 20.114375 -64.863906 17.360469 L -64.863906 -17.362188 C -64.863906 -20.112188 -62.633437 -22.342656 -59.883437 -22.342656 L 59.882188 -22.342656 C 62.632188 -22.342656 64.862656 -20.112188 64.862656 -17.362188 L 64.862656 17.360469 C 64.862656 20.114375 62.632188 22.340937 59.882188 22.340937 Z M 59.882188 22.340937 " transform="matrix(1, 0, 0, -1, 65.36, 107.88)"/>
<path fill-rule="nonzero" fill="rgb(79.998779%, 79.998779%, 100%)" fill-opacity="1" stroke-width="0.3985" stroke-linecap="butt" stroke-linejoin="miter" stroke="rgb(79.998779%, 79.998779%, 100%)" stroke-opacity="1" stroke-miterlimit="10" d="M 61.67675 -0.00003125 C 61.67675 2.749969 59.446281 4.980437 56.692375 4.980437 C 53.942375 4.980437 51.711906 2.749969 51.711906 -0.00003125 C 51.711906 -2.750031 53.942375 -4.9805 56.692375 -4.9805 C 59.446281 -4.9805 61.67675 -2.750031 61.67675 -0.00003125 Z M 61.67675 -0.00003125 " transform="matrix(1, 0, 0, -1, 8.667, 93.707)"/>
<path fill-rule="nonzero" fill="rgb(100%, 50%, 0%)" fill-opacity="1" stroke-width="0.3985" stroke-linecap="butt" stroke-linejoin="miter" stroke="rgb(100%, 50%, 0%)" stroke-opacity="1" stroke-miterlimit="10" d="M 4.981437 -0.00003125 C 4.981437 2.749969 2.750969 4.980437 0.00096875 4.980437 C -2.752938 4.980437 -4.9795 2.749969 -4.9795 -0.00003125 C -4.9795 -2.750031 -2.752938 -4.9805 0.00096875 -4.9805 C 2.750969 -4.9805 4.981437 -2.750031 4.981437 -0.00003125 Z M 4.981437 -0.00003125 " transform="matrix(1, 0, 0, -1, 8.667, 93.707)"/>
<path fill-rule="nonzero" fill="rgb(7.817078%, 64.082336%, 90.036011%)" fill-opacity="1" stroke-width="0.3985" stroke-linecap="butt" stroke-linejoin="miter" stroke="rgb(7.817078%, 64.082336%, 90.036011%)" stroke-opacity="1" stroke-miterlimit="10" d="M 33.329094 -0.00003125 C 33.329094 2.749969 31.098625 4.980437 28.348625 4.980437 C 25.594719 4.980437 23.36425 2.749969 23.36425 -0.00003125 C 23.36425 -2.750031 25.594719 -4.9805 28.348625 -4.9805 C 31.098625 -4.9805 33.329094 -2.750031 33.329094 -0.00003125 Z M 33.329094 -0.00003125 " transform="matrix(1, 0, 0, -1, 8.667, 93.707)"/>
<path fill-rule="nonzero" fill="rgb(71.136475%, 14.471436%, 11.114502%)" fill-opacity="1" stroke-width="0.3985" stroke-linecap="butt" stroke-linejoin="miter" stroke="rgb(71.136475%, 14.471436%, 11.114502%)" stroke-opacity="1" stroke-miterlimit="10" d="M 90.0205 -0.00003125 C 90.0205 2.749969 87.790031 4.980437 85.040031 4.980437 C 82.290031 4.980437 80.059562 2.749969 80.059562 -0.00003125 C 80.059562 -2.750031 82.290031 -4.9805 85.040031 -4.9805 C 87.790031 -4.9805 90.0205 -2.750031 90.0205 -0.00003125 Z M 90.0205 -0.00003125 " transform="matrix(1, 0, 0, -1, 8.667, 93.707)"/>
<path fill-rule="nonzero" fill="rgb(23.200989%, 48.974609%, 14.593506%)" fill-opacity="1" stroke-width="0.3985" stroke-linecap="butt" stroke-linejoin="miter" stroke="rgb(23.200989%, 48.974609%, 14.593506%)" stroke-opacity="1" stroke-miterlimit="10" d="M 118.368156 -0.00003125 C 118.368156 2.749969 116.137687 4.980437 113.387687 4.980437 C 110.637687 4.980437 108.407219 2.749969 108.407219 -0.00003125 C 108.407219 -2.750031 110.637687 -4.9805 113.387687 -4.9805 C 116.137687 -4.9805 118.368156 -2.750031 118.368156 -0.00003125 Z M 118.368156 -0.00003125 " transform="matrix(1, 0, 0, -1, 8.667, 93.707)"/>
<path fill-rule="nonzero" fill="rgb(69.999695%, 69.999695%, 69.999695%)" fill-opacity="1" stroke-width="0.3985" stroke-linecap="butt" stroke-linejoin="miter" stroke="rgb(69.999695%, 69.999695%, 69.999695%)" stroke-opacity="1" stroke-miterlimit="10" d="M 0.00096875 -23.367219 C -2.752938 -23.367219 -4.9795 -25.593781 -4.9795 -28.347688 C -4.9795 -31.097688 -2.752938 -33.328156 0.00096875 -33.328156 C 2.750969 -33.328156 4.981437 -31.097688 4.981437 -28.347688 C 4.981437 -25.593781 2.750969 -23.367219 0.00096875 -23.367219 Z M 0.00096875 -23.367219 " transform="matrix(1, 0, 0, -1, 8.667, 93.707)"/>
<path fill-rule="nonzero" fill="rgb(69.999695%, 69.999695%, 69.999695%)" fill-opacity="1" stroke-width="0.3985" stroke-linecap="butt" stroke-linejoin="miter" stroke="rgb(69.999695%, 69.999695%, 69.999695%)" stroke-opacity="1" stroke-miterlimit="10" d="M 28.348625 -23.367219 C 25.594719 -23.367219 23.36425 -25.593781 23.36425 -28.347688 C 23.36425 -31.097688 25.594719 -33.328156 28.348625 -33.328156 C 31.098625 -33.328156 33.329094 -31.097688 33.329094 -28.347688 C 33.329094 -25.593781 31.098625 -23.367219 28.348625 -23.367219 Z M 28.348625 -23.367219 " transform="matrix(1, 0, 0, -1, 8.667, 93.707)"/>
<path fill-rule="nonzero" fill="rgb(69.999695%, 69.999695%, 69.999695%)" fill-opacity="1" stroke-width="0.3985" stroke-linecap="butt" stroke-linejoin="miter" stroke="rgb(69.999695%, 69.999695%, 69.999695%)" stroke-opacity="1" stroke-miterlimit="10" d="M 56.692375 -23.367219 C 53.942375 -23.367219 51.711906 -25.593781 51.711906 -28.347688 C 51.711906 -31.097688 53.942375 -33.328156 56.692375 -33.328156 C 59.446281 -33.328156 61.67675 -31.097688 61.67675 -28.347688 C 61.67675 -25.593781 59.446281 -23.367219 56.692375 -23.367219 Z M 56.692375 -23.367219 " transform="matrix(1, 0, 0, -1, 8.667, 93.707)"/>
<path fill-rule="nonzero" fill="rgb(69.999695%, 69.999695%, 69.999695%)" fill-opacity="1" stroke-width="0.3985" stroke-linecap="butt" stroke-linejoin="miter" stroke="rgb(69.999695%, 69.999695%, 69.999695%)" stroke-opacity="1" stroke-miterlimit="10" d="M 85.040031 -23.367219 C 82.290031 -23.367219 80.059562 -25.593781 80.059562 -28.347688 C 80.059562 -31.097688 82.290031 -33.328156 85.040031 -33.328156 C 87.790031 -33.328156 90.0205 -31.097688 90.0205 -28.347688 C 90.0205 -25.593781 87.790031 -23.367219 85.040031 -23.367219 Z M 85.040031 -23.367219 " transform="matrix(1, 0, 0, -1, 8.667, 93.707)"/>
<path fill-rule="nonzero" fill="rgb(69.999695%, 69.999695%, 69.999695%)" fill-opacity="1" stroke-width="0.3985" stroke-linecap="butt" stroke-linejoin="miter" stroke="rgb(69.999695%, 69.999695%, 69.999695%)" stroke-opacity="1" stroke-miterlimit="10" d="M 113.387687 -23.367219 C 110.637687 -23.367219 108.407219 -25.593781 108.407219 -28.347688 C 108.407219 -31.097688 110.637687 -33.328156 113.387687 -33.328156 C 116.137687 -33.328156 118.368156 -31.097688 118.368156 -28.347688 C 118.368156 -25.593781 116.137687 -23.367219 113.387687 -23.367219 Z M 113.387687 -23.367219 " transform="matrix(1, 0, 0, -1, 8.667, 93.707)"/>
<path fill="none" stroke-width="0.19925" stroke-linecap="butt" stroke-linejoin="miter" stroke="rgb(50%, 50%, 50%)" stroke-opacity="1" stroke-miterlimit="10" d="M 52.059562 -2.316438 L 5.180656 -25.757844 M 3.665031 -3.664094 L 23.165031 -23.168 M 32.008781 -3.664094 L 51.512687 -23.168 M 85.040031 -5.179719 L 85.040031 -23.168 M 113.387687 -5.179719 L 113.387687 -23.168 M 61.325187 -2.316438 L 108.208 -25.757844 M 81.375969 -3.664094 L 61.872062 -23.168 M 109.723625 -3.664094 L 90.219719 -23.168 M 32.981437 -2.316438 L 79.860344 -25.757844 M 0.00096875 -5.179719 L 0.00096875 -23.168 M 28.348625 -5.179719 L 28.348625 -23.168 " transform="matrix(1, 0, 0, -1, 8.667, 93.707)"/>
<path fill="none" stroke-width="0.99628" stroke-linecap="butt" stroke-linejoin="miter" stroke="rgb(8.042908%, 60.865784%, 32.264709%)" stroke-opacity="1" stroke-miterlimit="10" d="M 201.616562 22.340937 L 81.850938 22.340937 C 79.100938 22.340937 76.870469 20.114375 76.870469 17.360469 L 76.870469 -17.362188 C 76.870469 -20.112188 79.100938 -22.342656 81.850938 -22.342656 L 201.616562 -22.342656 C 204.366562 -22.342656 206.597031 -20.112188 206.597031 -17.362188 L 206.597031 17.360469 C 206.597031 20.114375 204.366562 22.340937 201.616562 22.340937 Z M 201.616562 22.340937 " transform="matrix(1, 0, 0, -1, 65.36, 107.88)"/>
<path fill-rule="nonzero" fill="rgb(79.998779%, 79.998779%, 100%)" fill-opacity="1" stroke-width="0.3985" stroke-linecap="butt" stroke-linejoin="miter" stroke="rgb(79.998779%, 79.998779%, 100%)" stroke-opacity="1" stroke-miterlimit="10" d="M 61.674219 -0.00003125 C 61.674219 2.749969 59.44375 4.980437 56.69375 4.980437 C 53.94375 4.980437 51.713281 2.749969 51.713281 -0.00003125 C 51.713281 -2.750031 53.94375 -4.9805 56.69375 -4.9805 C 59.44375 -4.9805 61.674219 -2.750031 61.674219 -0.00003125 Z M 61.674219 -0.00003125 " transform="matrix(1, 0, 0, -1, 150.4, 93.707)"/>
<path fill-rule="nonzero" fill="rgb(100%, 50%, 0%)" fill-opacity="1" stroke-width="0.3985" stroke-linecap="butt" stroke-linejoin="miter" stroke="rgb(100%, 50%, 0%)" stroke-opacity="1" stroke-miterlimit="10" d="M 4.982812 -0.00003125 C 4.982812 2.749969 2.752344 4.980437 -0.0015625 4.980437 C -2.751563 4.980437 -4.982031 2.749969 -4.982031 -0.00003125 C -4.982031 -2.750031 -2.751563 -4.9805 -0.0015625 -4.9805 C 2.752344 -4.9805 4.982812 -2.750031 4.982812 -0.00003125 Z M 4.982812 -0.00003125 " transform="matrix(1, 0, 0, -1, 150.4, 93.707)"/>
<path fill-rule="nonzero" fill="rgb(7.817078%, 64.082336%, 90.036011%)" fill-opacity="1" stroke-width="0.3985" stroke-linecap="butt" stroke-linejoin="miter" stroke="rgb(7.817078%, 64.082336%, 90.036011%)" stroke-opacity="1" stroke-miterlimit="10" d="M 33.326562 -0.00003125 C 33.326562 2.749969 31.096094 4.980437 28.346094 4.980437 C 25.596094 4.980437 23.365625 2.749969 23.365625 -0.00003125 C 23.365625 -2.750031 25.596094 -4.9805 28.346094 -4.9805 C 31.096094 -4.9805 33.326562 -2.750031 33.326562 -0.00003125 Z M 33.326562 -0.00003125 " transform="matrix(1, 0, 0, -1, 150.4, 93.707)"/>
<path fill-rule="nonzero" fill="rgb(71.136475%, 14.471436%, 11.114502%)" fill-opacity="1" stroke-width="0.3985" stroke-linecap="butt" stroke-linejoin="miter" stroke="rgb(71.136475%, 14.471436%, 11.114502%)" stroke-opacity="1" stroke-miterlimit="10" d="M 90.021875 -0.00003125 C 90.021875 2.749969 87.791406 4.980437 85.041406 4.980437 C 82.2875 4.980437 80.060937 2.749969 80.060937 -0.00003125 C 80.060937 -2.750031 82.2875 -4.9805 85.041406 -4.9805 C 87.791406 -4.9805 90.021875 -2.750031 90.021875 -0.00003125 Z M 90.021875 -0.00003125 " transform="matrix(1, 0, 0, -1, 150.4, 93.707)"/>
<path fill-rule="nonzero" fill="rgb(23.200989%, 48.974609%, 14.593506%)" fill-opacity="1" stroke-width="0.3985" stroke-linecap="butt" stroke-linejoin="miter" stroke="rgb(23.200989%, 48.974609%, 14.593506%)" stroke-opacity="1" stroke-miterlimit="10" d="M 118.369531 -0.00003125 C 118.369531 2.749969 116.139062 4.980437 113.389062 4.980437 C 110.635156 4.980437 108.404687 2.749969 108.404687 -0.00003125 C 108.404687 -2.750031 110.635156 -4.9805 113.389062 -4.9805 C 116.139062 -4.9805 118.369531 -2.750031 118.369531 -0.00003125 Z M 118.369531 -0.00003125 " transform="matrix(1, 0, 0, -1, 150.4, 93.707)"/>
<path fill-rule="nonzero" fill="rgb(69.999695%, 69.999695%, 69.999695%)" fill-opacity="1" stroke-width="0.3985" stroke-linecap="butt" stroke-linejoin="miter" stroke="rgb(69.999695%, 69.999695%, 69.999695%)" stroke-opacity="1" stroke-miterlimit="10" d="M -0.0015625 -23.367219 C -2.751563 -23.367219 -4.982031 -25.593781 -4.982031 -28.347688 C -4.982031 -31.097688 -2.751563 -33.328156 -0.0015625 -33.328156 C 2.752344 -33.328156 4.982812 -31.097688 4.982812 -28.347688 C 4.982812 -25.593781 2.752344 -23.367219 -0.0015625 -23.367219 Z M -0.0015625 -23.367219 " transform="matrix(1, 0, 0, -1, 150.4, 93.707)"/>
<path fill-rule="nonzero" fill="rgb(69.999695%, 69.999695%, 69.999695%)" fill-opacity="1" stroke-width="0.3985" stroke-linecap="butt" stroke-linejoin="miter" stroke="rgb(69.999695%, 69.999695%, 69.999695%)" stroke-opacity="1" stroke-miterlimit="10" d="M 28.346094 -23.367219 C 25.596094 -23.367219 23.365625 -25.593781 23.365625 -28.347688 C 23.365625 -31.097688 25.596094 -33.328156 28.346094 -33.328156 C 31.096094 -33.328156 33.326562 -31.097688 33.326562 -28.347688 C 33.326562 -25.593781 31.096094 -23.367219 28.346094 -23.367219 Z M 28.346094 -23.367219 " transform="matrix(1, 0, 0, -1, 150.4, 93.707)"/>
<path fill-rule="nonzero" fill="rgb(69.999695%, 69.999695%, 69.999695%)" fill-opacity="1" stroke-width="0.3985" stroke-linecap="butt" stroke-linejoin="miter" stroke="rgb(69.999695%, 69.999695%, 69.999695%)" stroke-opacity="1" stroke-miterlimit="10" d="M 56.69375 -23.367219 C 53.94375 -23.367219 51.713281 -25.593781 51.713281 -28.347688 C 51.713281 -31.097688 53.94375 -33.328156 56.69375 -33.328156 C 59.44375 -33.328156 61.674219 -31.097688 61.674219 -28.347688 C 61.674219 -25.593781 59.44375 -23.367219 56.69375 -23.367219 Z M 56.69375 -23.367219 " transform="matrix(1, 0, 0, -1, 150.4, 93.707)"/>
<path fill-rule="nonzero" fill="rgb(69.999695%, 69.999695%, 69.999695%)" fill-opacity="1" stroke-width="0.3985" stroke-linecap="butt" stroke-linejoin="miter" stroke="rgb(69.999695%, 69.999695%, 69.999695%)" stroke-opacity="1" stroke-miterlimit="10" d="M 85.041406 -23.367219 C 82.2875 -23.367219 80.060937 -25.593781 80.060937 -28.347688 C 80.060937 -31.097688 82.2875 -33.328156 85.041406 -33.328156 C 87.791406 -33.328156 90.021875 -31.097688 90.021875 -28.347688 C 90.021875 -25.593781 87.791406 -23.367219 85.041406 -23.367219 Z M 85.041406 -23.367219 " transform="matrix(1, 0, 0, -1, 150.4, 93.707)"/>
<path fill-rule="nonzero" fill="rgb(69.999695%, 69.999695%, 69.999695%)" fill-opacity="1" stroke-width="0.3985" stroke-linecap="butt" stroke-linejoin="miter" stroke="rgb(69.999695%, 69.999695%, 69.999695%)" stroke-opacity="1" stroke-miterlimit="10" d="M 113.389062 -23.367219 C 110.635156 -23.367219 108.404687 -25.593781 108.404687 -28.347688 C 108.404687 -31.097688 110.635156 -33.328156 113.389062 -33.328156 C 116.139062 -33.328156 118.369531 -31.097688 118.369531 -28.347688 C 118.369531 -25.593781 116.139062 -23.367219 113.389062 -23.367219 Z M 113.389062 -23.367219 " transform="matrix(1, 0, 0, -1, 150.4, 93.707)"/>
<path fill="none" stroke-width="0.19925" stroke-linecap="butt" stroke-linejoin="miter" stroke="rgb(50%, 50%, 50%)" stroke-opacity="1" stroke-miterlimit="10" d="M 52.060937 -2.316438 L 5.182031 -25.757844 M 3.6625 -3.664094 L 23.166406 -23.168 M 32.010156 -3.664094 L 51.514062 -23.168 M 85.041406 -5.179719 L 85.041406 -23.168 M 113.389062 -5.179719 L 113.389062 -23.168 M 61.326562 -2.316438 L 108.205469 -25.757844 M 81.377344 -3.664094 L 61.873437 -23.168 M 109.725 -3.664094 L 90.221094 -23.168 M 32.978906 -2.316438 L 79.861719 -25.757844 M -0.0015625 -5.179719 L -0.0015625 -23.168 M 28.346094 -5.179719 L 28.346094 -23.168 " transform="matrix(1, 0, 0, -1, 150.4, 93.707)"/>
<path fill="none" stroke-width="1.59404" stroke-linecap="butt" stroke-linejoin="miter" stroke="rgb(71.136475%, 14.471436%, 11.114502%)" stroke-opacity="1" stroke-miterlimit="10" d="M 85.041406 -5.179719 L 85.041406 -23.168 " transform="matrix(1, 0, 0, -1, 150.4, 93.707)"/>
<path fill="none" stroke-width="0.3985" stroke-linecap="butt" stroke-linejoin="miter" stroke="rgb(12.156677%, 59.999084%, 40.391541%)" stroke-opacity="1" stroke-miterlimit="10" d="M 65.362656 0.00109375 L 75.975938 0.00109375 " transform="matrix(1, 0, 0, -1, 65.36, 107.88)"/>
<path fill="none" stroke-width="0.3985" stroke-linecap="round" stroke-linejoin="round" stroke="rgb(12.156677%, 59.999084%, 40.391541%)" stroke-opacity="1" stroke-miterlimit="10" d="M -2.072632 2.391719 C -1.693726 0.958125 -0.849976 0.278437 0.00158625 0.00109375 C -0.849976 -0.280156 -1.693726 -0.955938 -2.072632 -2.389531 " transform="matrix(1, 0, 0, -1, 141.53357, 107.88)"/>
<path fill="none" stroke-width="0.99628" stroke-linecap="butt" stroke-linejoin="miter" stroke="rgb(71.136475%, 14.471436%, 11.114502%)" stroke-opacity="1" stroke-miterlimit="10" d="M 343.350937 107.383906 L 223.585312 107.383906 C 220.835312 107.383906 218.604844 105.153437 218.604844 102.403437 L 218.604844 67.680781 C 218.604844 64.926875 220.835312 62.696406 223.585312 62.696406 L 343.350937 62.696406 C 346.100937 62.696406 348.331406 64.926875 348.331406 67.680781 L 348.331406 102.403437 C 348.331406 105.153437 346.100937 107.383906 343.350937 107.383906 Z M 343.350937 107.383906 " transform="matrix(1, 0, 0, -1, 65.36, 107.88)"/>
<path fill-rule="nonzero" fill="rgb(79.998779%, 79.998779%, 100%)" fill-opacity="1" stroke-width="0.3985" stroke-linecap="butt" stroke-linejoin="miter" stroke="rgb(79.998779%, 79.998779%, 100%)" stroke-opacity="1" stroke-miterlimit="10" d="M 61.676594 -0.00096875 C 61.676594 2.752938 59.446125 4.9795 56.692219 4.9795 C 53.942219 4.9795 51.71175 2.752938 51.71175 -0.00096875 C 51.71175 -2.750969 53.942219 -4.981437 56.692219 -4.981437 C 59.446125 -4.981437 61.676594 -2.750969 61.676594 -0.00096875 Z M 61.676594 -0.00096875 " transform="matrix(1, 0, 0, -1, 292.132, 8.667)"/>
<path fill-rule="nonzero" fill="rgb(100%, 50%, 0%)" fill-opacity="1" stroke-width="0.3985" stroke-linecap="butt" stroke-linejoin="miter" stroke="rgb(100%, 50%, 0%)" stroke-opacity="1" stroke-miterlimit="10" d="M 4.981281 -0.00096875 C 4.981281 2.752938 2.750812 4.9795 0.0008125 4.9795 C -2.753094 4.9795 -4.979656 2.752938 -4.979656 -0.00096875 C -4.979656 -2.750969 -2.753094 -4.981437 0.0008125 -4.981437 C 2.750812 -4.981437 4.981281 -2.750969 4.981281 -0.00096875 Z M 4.981281 -0.00096875 " transform="matrix(1, 0, 0, -1, 292.132, 8.667)"/>
<path fill-rule="nonzero" fill="rgb(7.817078%, 64.082336%, 90.036011%)" fill-opacity="1" stroke-width="0.3985" stroke-linecap="butt" stroke-linejoin="miter" stroke="rgb(7.817078%, 64.082336%, 90.036011%)" stroke-opacity="1" stroke-miterlimit="10" d="M 33.328937 -0.00096875 C 33.328937 2.752938 31.098469 4.9795 28.348469 4.9795 C 25.594562 4.9795 23.364094 2.752938 23.364094 -0.00096875 C 23.364094 -2.750969 25.594562 -4.981437 28.348469 -4.981437 C 31.098469 -4.981437 33.328937 -2.750969 33.328937 -0.00096875 Z M 33.328937 -0.00096875 " transform="matrix(1, 0, 0, -1, 292.132, 8.667)"/>
<path fill-rule="nonzero" fill="rgb(71.136475%, 14.471436%, 11.114502%)" fill-opacity="1" stroke-width="0.3985" stroke-linecap="butt" stroke-linejoin="miter" stroke="rgb(71.136475%, 14.471436%, 11.114502%)" stroke-opacity="1" stroke-miterlimit="10" d="M 90.020344 -0.00096875 C 90.020344 2.752938 87.789875 4.9795 85.039875 4.9795 C 82.289875 4.9795 80.059406 2.752938 80.059406 -0.00096875 C 80.059406 -2.750969 82.289875 -4.981437 85.039875 -4.981437 C 87.789875 -4.981437 90.020344 -2.750969 90.020344 -0.00096875 Z M 90.020344 -0.00096875 " transform="matrix(1, 0, 0, -1, 292.132, 8.667)"/>
<path fill-rule="nonzero" fill="rgb(23.200989%, 48.974609%, 14.593506%)" fill-opacity="1" stroke-width="0.3985" stroke-linecap="butt" stroke-linejoin="miter" stroke="rgb(23.200989%, 48.974609%, 14.593506%)" stroke-opacity="1" stroke-miterlimit="10" d="M 118.368 -0.00096875 C 118.368 2.752938 116.137531 4.9795 113.387531 4.9795 C 110.637531 4.9795 108.407062 2.752938 108.407062 -0.00096875 C 108.407062 -2.750969 110.637531 -4.981437 113.387531 -4.981437 C 116.137531 -4.981437 118.368 -2.750969 118.368 -0.00096875 Z M 118.368 -0.00096875 " transform="matrix(1, 0, 0, -1, 292.132, 8.667)"/>
<path fill-rule="nonzero" fill="rgb(69.999695%, 69.999695%, 69.999695%)" fill-opacity="1" stroke-width="0.3985" stroke-linecap="butt" stroke-linejoin="miter" stroke="rgb(69.999695%, 69.999695%, 69.999695%)" stroke-opacity="1" stroke-miterlimit="10" d="M 0.0008125 -23.36425 C -2.753094 -23.36425 -4.979656 -25.594719 -4.979656 -28.348625 C -4.979656 -31.098625 -2.753094 -33.329094 0.0008125 -33.329094 C 2.750812 -33.329094 4.981281 -31.098625 4.981281 -28.348625 C 4.981281 -25.594719 2.750812 -23.36425 0.0008125 -23.36425 Z M 0.0008125 -23.36425 " transform="matrix(1, 0, 0, -1, 292.132, 8.667)"/>
<path fill-rule="nonzero" fill="rgb(69.999695%, 69.999695%, 69.999695%)" fill-opacity="1" stroke-width="0.3985" stroke-linecap="butt" stroke-linejoin="miter" stroke="rgb(69.999695%, 69.999695%, 69.999695%)" stroke-opacity="1" stroke-miterlimit="10" d="M 28.348469 -23.36425 C 25.594562 -23.36425 23.364094 -25.594719 23.364094 -28.348625 C 23.364094 -31.098625 25.594562 -33.329094 28.348469 -33.329094 C 31.098469 -33.329094 33.328937 -31.098625 33.328937 -28.348625 C 33.328937 -25.594719 31.098469 -23.36425 28.348469 -23.36425 Z M 28.348469 -23.36425 " transform="matrix(1, 0, 0, -1, 292.132, 8.667)"/>
<path fill-rule="nonzero" fill="rgb(69.999695%, 69.999695%, 69.999695%)" fill-opacity="1" stroke-width="0.3985" stroke-linecap="butt" stroke-linejoin="miter" stroke="rgb(69.999695%, 69.999695%, 69.999695%)" stroke-opacity="1" stroke-miterlimit="10" d="M 56.692219 -23.36425 C 53.942219 -23.36425 51.71175 -25.594719 51.71175 -28.348625 C 51.71175 -31.098625 53.942219 -33.329094 56.692219 -33.329094 C 59.446125 -33.329094 61.676594 -31.098625 61.676594 -28.348625 C 61.676594 -25.594719 59.446125 -23.36425 56.692219 -23.36425 Z M 56.692219 -23.36425 " transform="matrix(1, 0, 0, -1, 292.132, 8.667)"/>
<path fill-rule="nonzero" fill="rgb(69.999695%, 69.999695%, 69.999695%)" fill-opacity="1" stroke-width="0.3985" stroke-linecap="butt" stroke-linejoin="miter" stroke="rgb(69.999695%, 69.999695%, 69.999695%)" stroke-opacity="1" stroke-miterlimit="10" d="M 85.039875 -23.36425 C 82.289875 -23.36425 80.059406 -25.594719 80.059406 -28.348625 C 80.059406 -31.098625 82.289875 -33.329094 85.039875 -33.329094 C 87.789875 -33.329094 90.020344 -31.098625 90.020344 -28.348625 C 90.020344 -25.594719 87.789875 -23.36425 85.039875 -23.36425 Z M 85.039875 -23.36425 " transform="matrix(1, 0, 0, -1, 292.132, 8.667)"/>
<path fill-rule="nonzero" fill="rgb(69.999695%, 69.999695%, 69.999695%)" fill-opacity="1" stroke-width="0.3985" stroke-linecap="butt" stroke-linejoin="miter" stroke="rgb(69.999695%, 69.999695%, 69.999695%)" stroke-opacity="1" stroke-miterlimit="10" d="M 113.387531 -23.36425 C 110.637531 -23.36425 108.407062 -25.594719 108.407062 -28.348625 C 108.407062 -31.098625 110.637531 -33.329094 113.387531 -33.329094 C 116.137531 -33.329094 118.368 -31.098625 118.368 -28.348625 C 118.368 -25.594719 116.137531 -23.36425 113.387531 -23.36425 Z M 113.387531 -23.36425 " transform="matrix(1, 0, 0, -1, 292.132, 8.667)"/>
<path fill="none" stroke-width="0.19925" stroke-linecap="butt" stroke-linejoin="miter" stroke="rgb(50%, 50%, 50%)" stroke-opacity="1" stroke-miterlimit="10" d="M 52.059406 -2.317375 L 5.1805 -25.758781 M 3.664875 -3.665031 L 23.168781 -23.165031 M 32.008625 -3.665031 L 51.512531 -23.165031 M 85.039875 -5.180656 L 85.039875 -23.165031 M 113.387531 -5.180656 L 113.387531 -23.165031 M 61.328937 -2.317375 L 108.207844 -25.758781 M 81.375812 -3.665031 L 61.871906 -23.165031 M 109.723469 -3.665031 L 90.219562 -23.165031 M 32.981281 -2.317375 L 79.860187 -25.758781 M 0.0008125 -5.180656 L 0.0008125 -23.165031 M 28.348469 -5.180656 L 28.348469 -23.165031 " transform="matrix(1, 0, 0, -1, 292.132, 8.667)"/>
<path fill="none" stroke-width="1.59404" stroke-linecap="butt" stroke-linejoin="miter" stroke="rgb(71.136475%, 14.471436%, 11.114502%)" stroke-opacity="1" stroke-miterlimit="10" d="M 85.039875 -5.180656 L 85.039875 -23.165031 " transform="matrix(1, 0, 0, -1, 292.132, 8.667)"/>
<path fill="none" stroke-width="1.59404" stroke-linecap="butt" stroke-linejoin="miter" stroke="rgb(100%, 50%, 0%)" stroke-opacity="1" stroke-miterlimit="10" d="M 0.0008125 -5.180656 L 0.0008125 -23.165031 " transform="matrix(1, 0, 0, -1, 292.132, 8.667)"/>
<path fill="none" stroke-width="0.3985" stroke-linecap="butt" stroke-linejoin="miter" stroke="rgb(12.156677%, 59.999084%, 40.391541%)" stroke-opacity="1" stroke-miterlimit="10" d="M 141.73375 22.840937 L 141.73375 85.040156 L 217.710312 85.040156 " transform="matrix(1, 0, 0, -1, 65.36, 107.88)"/>
<path fill="none" stroke-width="0.3985" stroke-linecap="round" stroke-linejoin="round" stroke="rgb(12.156677%, 59.999084%, 40.391541%)" stroke-opacity="1" stroke-miterlimit="10" d="M -2.072297 2.390361 C -1.693391 0.956767 -0.849641 0.27708 0.00192125 -0.00026375 C -0.849641 -0.277608 -1.693391 -0.957295 -2.072297 -2.390889 " transform="matrix(1, 0, 0, -1, 283.26761, 22.83958)"/>
<path fill="none" stroke-width="0.99628" stroke-linecap="butt" stroke-linejoin="miter" stroke="rgb(71.136475%, 14.471436%, 11.114502%)" stroke-opacity="1" stroke-miterlimit="10" d="M 485.085312 107.383906 L 365.319687 107.383906 C 362.569687 107.383906 360.339219 105.153437 360.339219 102.403437 L 360.339219 67.680781 C 360.339219 64.926875 362.569687 62.696406 365.319687 62.696406 L 485.085312 62.696406 C 487.835312 62.696406 490.065781 64.926875 490.065781 67.680781 L 490.065781 102.403437 C 490.065781 105.153437 487.835312 107.383906 485.085312 107.383906 Z M 485.085312 107.383906 " transform="matrix(1, 0, 0, -1, 65.36, 107.88)"/>
<path fill-rule="nonzero" fill="rgb(79.998779%, 79.998779%, 100%)" fill-opacity="1" stroke-width="0.3985" stroke-linecap="butt" stroke-linejoin="miter" stroke="rgb(79.998779%, 79.998779%, 100%)" stroke-opacity="1" stroke-miterlimit="10" d="M 61.675062 -0.00096875 C 61.675062 2.752938 59.444594 4.9795 56.694594 4.9795 C 53.940687 4.9795 51.714125 2.752938 51.714125 -0.00096875 C 51.714125 -2.750969 53.940687 -4.981437 56.694594 -4.981437 C 59.444594 -4.981437 61.675062 -2.750969 61.675062 -0.00096875 Z M 61.675062 -0.00096875 " transform="matrix(1, 0, 0, -1, 433.864, 8.667)"/>
<path fill-rule="nonzero" fill="rgb(100%, 50%, 0%)" fill-opacity="1" stroke-width="0.3985" stroke-linecap="butt" stroke-linejoin="miter" stroke="rgb(100%, 50%, 0%)" stroke-opacity="1" stroke-miterlimit="10" d="M 4.97975 -0.00096875 C 4.97975 2.752938 2.749281 4.9795 -0.00071875 4.9795 C -2.750719 4.9795 -4.981188 2.752938 -4.981188 -0.00096875 C -4.981188 -2.750969 -2.750719 -4.981437 -0.00071875 -4.981437 C 2.749281 -4.981437 4.97975 -2.750969 4.97975 -0.00096875 Z M 4.97975 -0.00096875 " transform="matrix(1, 0, 0, -1, 433.864, 8.667)"/>
<path fill-rule="nonzero" fill="rgb(7.817078%, 64.082336%, 90.036011%)" fill-opacity="1" stroke-width="0.3985" stroke-linecap="butt" stroke-linejoin="miter" stroke="rgb(7.817078%, 64.082336%, 90.036011%)" stroke-opacity="1" stroke-miterlimit="10" d="M 33.327406 -0.00096875 C 33.327406 2.752938 31.096937 4.9795 28.346937 4.9795 C 25.596937 4.9795 23.366469 2.752938 23.366469 -0.00096875 C 23.366469 -2.750969 25.596937 -4.981437 28.346937 -4.981437 C 31.096937 -4.981437 33.327406 -2.750969 33.327406 -0.00096875 Z M 33.327406 -0.00096875 " transform="matrix(1, 0, 0, -1, 433.864, 8.667)"/>
<path fill-rule="nonzero" fill="rgb(71.136475%, 14.471436%, 11.114502%)" fill-opacity="1" stroke-width="0.3985" stroke-linecap="butt" stroke-linejoin="miter" stroke="rgb(71.136475%, 14.471436%, 11.114502%)" stroke-opacity="1" stroke-miterlimit="10" d="M 90.022719 -0.00096875 C 90.022719 2.752938 87.79225 4.9795 85.04225 4.9795 C 82.288344 4.9795 80.057875 2.752938 80.057875 -0.00096875 C 80.057875 -2.750969 82.288344 -4.981437 85.04225 -4.981437 C 87.79225 -4.981437 90.022719 -2.750969 90.022719 -0.00096875 Z M 90.022719 -0.00096875 " transform="matrix(1, 0, 0, -1, 433.864, 8.667)"/>
<path fill-rule="nonzero" fill="rgb(23.200989%, 48.974609%, 14.593506%)" fill-opacity="1" stroke-width="0.3985" stroke-linecap="butt" stroke-linejoin="miter" stroke="rgb(23.200989%, 48.974609%, 14.593506%)" stroke-opacity="1" stroke-miterlimit="10" d="M 118.370375 -0.00096875 C 118.370375 2.752938 116.139906 4.9795 113.386 4.9795 C 110.636 4.9795 108.405531 2.752938 108.405531 -0.00096875 C 108.405531 -2.750969 110.636 -4.981437 113.386 -4.981437 C 116.139906 -4.981437 118.370375 -2.750969 118.370375 -0.00096875 Z M 118.370375 -0.00096875 " transform="matrix(1, 0, 0, -1, 433.864, 8.667)"/>
<path fill-rule="nonzero" fill="rgb(69.999695%, 69.999695%, 69.999695%)" fill-opacity="1" stroke-width="0.3985" stroke-linecap="butt" stroke-linejoin="miter" stroke="rgb(69.999695%, 69.999695%, 69.999695%)" stroke-opacity="1" stroke-miterlimit="10" d="M -0.00071875 -23.36425 C -2.750719 -23.36425 -4.981188 -25.594719 -4.981188 -28.348625 C -4.981188 -31.098625 -2.750719 -33.329094 -0.00071875 -33.329094 C 2.749281 -33.329094 4.97975 -31.098625 4.97975 -28.348625 C 4.97975 -25.594719 2.749281 -23.36425 -0.00071875 -23.36425 Z M -0.00071875 -23.36425 " transform="matrix(1, 0, 0, -1, 433.864, 8.667)"/>
<path fill-rule="nonzero" fill="rgb(69.999695%, 69.999695%, 69.999695%)" fill-opacity="1" stroke-width="0.3985" stroke-linecap="butt" stroke-linejoin="miter" stroke="rgb(69.999695%, 69.999695%, 69.999695%)" stroke-opacity="1" stroke-miterlimit="10" d="M 28.346937 -23.36425 C 25.596937 -23.36425 23.366469 -25.594719 23.366469 -28.348625 C 23.366469 -31.098625 25.596937 -33.329094 28.346937 -33.329094 C 31.096937 -33.329094 33.327406 -31.098625 33.327406 -28.348625 C 33.327406 -25.594719 31.096937 -23.36425 28.346937 -23.36425 Z M 28.346937 -23.36425 " transform="matrix(1, 0, 0, -1, 433.864, 8.667)"/>
<path fill-rule="nonzero" fill="rgb(69.999695%, 69.999695%, 69.999695%)" fill-opacity="1" stroke-width="0.3985" stroke-linecap="butt" stroke-linejoin="miter" stroke="rgb(69.999695%, 69.999695%, 69.999695%)" stroke-opacity="1" stroke-miterlimit="10" d="M 56.694594 -23.36425 C 53.940687 -23.36425 51.714125 -25.594719 51.714125 -28.348625 C 51.714125 -31.098625 53.940687 -33.329094 56.694594 -33.329094 C 59.444594 -33.329094 61.675062 -31.098625 61.675062 -28.348625 C 61.675062 -25.594719 59.444594 -23.36425 56.694594 -23.36425 Z M 56.694594 -23.36425 " transform="matrix(1, 0, 0, -1, 433.864, 8.667)"/>
<path fill-rule="nonzero" fill="rgb(69.999695%, 69.999695%, 69.999695%)" fill-opacity="1" stroke-width="0.3985" stroke-linecap="butt" stroke-linejoin="miter" stroke="rgb(69.999695%, 69.999695%, 69.999695%)" stroke-opacity="1" stroke-miterlimit="10" d="M 85.04225 -23.36425 C 82.288344 -23.36425 80.057875 -25.594719 80.057875 -28.348625 C 80.057875 -31.098625 82.288344 -33.329094 85.04225 -33.329094 C 87.79225 -33.329094 90.022719 -31.098625 90.022719 -28.348625 C 90.022719 -25.594719 87.79225 -23.36425 85.04225 -23.36425 Z M 85.04225 -23.36425 " transform="matrix(1, 0, 0, -1, 433.864, 8.667)"/>
<path fill-rule="nonzero" fill="rgb(69.999695%, 69.999695%, 69.999695%)" fill-opacity="1" stroke-width="0.3985" stroke-linecap="butt" stroke-linejoin="miter" stroke="rgb(69.999695%, 69.999695%, 69.999695%)" stroke-opacity="1" stroke-miterlimit="10" d="M 113.386 -23.36425 C 110.636 -23.36425 108.405531 -25.594719 108.405531 -28.348625 C 108.405531 -31.098625 110.636 -33.329094 113.386 -33.329094 C 116.139906 -33.329094 118.370375 -31.098625 118.370375 -28.348625 C 118.370375 -25.594719 116.139906 -23.36425 113.386 -23.36425 Z M 113.386 -23.36425 " transform="matrix(1, 0, 0, -1, 433.864, 8.667)"/>
<path fill="none" stroke-width="0.19925" stroke-linecap="butt" stroke-linejoin="miter" stroke="rgb(50%, 50%, 50%)" stroke-opacity="1" stroke-miterlimit="10" d="M 52.061781 -2.317375 L 5.178969 -25.758781 M 3.663344 -3.665031 L 23.16725 -23.165031 M 32.011 -3.665031 L 51.514906 -23.165031 M 85.04225 -5.180656 L 85.04225 -23.165031 M 113.386 -5.180656 L 113.386 -23.165031 M 61.327406 -2.317375 L 108.206312 -25.758781 M 81.378187 -3.665031 L 61.874281 -23.165031 M 109.725844 -3.665031 L 90.221937 -23.165031 M 32.97975 -2.317375 L 79.858656 -25.758781 M -0.00071875 -5.180656 L -0.00071875 -23.165031 M 28.346937 -5.180656 L 28.346937 -23.165031 " transform="matrix(1, 0, 0, -1, 433.864, 8.667)"/>
<path fill="none" stroke-width="1.59404" stroke-linecap="butt" stroke-linejoin="miter" stroke="rgb(71.136475%, 14.471436%, 11.114502%)" stroke-opacity="1" stroke-miterlimit="10" d="M 85.04225 -5.180656 L 85.04225 -23.165031 " transform="matrix(1, 0, 0, -1, 433.864, 8.667)"/>
<path fill="none" stroke-width="1.59404" stroke-linecap="butt" stroke-linejoin="miter" stroke="rgb(100%, 50%, 0%)" stroke-opacity="1" stroke-miterlimit="10" d="M -0.00071875 -5.180656 L -0.00071875 -23.165031 " transform="matrix(1, 0, 0, -1, 433.864, 8.667)"/>
<path fill="none" stroke-width="1.59404" stroke-linecap="butt" stroke-linejoin="miter" stroke="rgb(79.998779%, 79.998779%, 100%)" stroke-opacity="1" stroke-miterlimit="10" d="M 61.327406 -2.317375 L 108.206312 -25.758781 " transform="matrix(1, 0, 0, -1, 433.864, 8.667)"/>
<path fill="none" stroke-width="0.3985" stroke-linecap="butt" stroke-linejoin="miter" stroke="rgb(12.156677%, 59.999084%, 40.391541%)" stroke-opacity="1" stroke-miterlimit="10" d="M 348.8275 85.040156 L 359.440781 85.040156 " transform="matrix(1, 0, 0, -1, 65.36, 107.88)"/>
<path fill="none" stroke-width="0.3985" stroke-linecap="round" stroke-linejoin="round" stroke="rgb(12.156677%, 59.999084%, 40.391541%)" stroke-opacity="1" stroke-miterlimit="10" d="M -2.071973 2.390361 C -1.693066 0.956767 -0.849316 0.27708 -0.00166 -0.00026375 C -0.849316 -0.277608 -1.693066 -0.957295 -2.071973 -2.390889 " transform="matrix(1, 0, 0, -1, 425.00166, 22.83958)"/>
<g clip-path="url(#clip-0)">
<path fill="none" stroke-width="0.99628" stroke-linecap="butt" stroke-linejoin="miter" stroke="rgb(8.042908%, 60.865784%, 32.264709%)" stroke-opacity="1" stroke-miterlimit="10" d="M 343.350937 -62.698125 L 223.585312 -62.698125 C 220.835312 -62.698125 218.604844 -64.928594 218.604844 -67.678594 L 218.604844 -102.40125 C 218.604844 -105.15125 220.835312 -107.381719 223.585312 -107.381719 L 343.350937 -107.381719 C 346.100937 -107.381719 348.331406 -105.15125 348.331406 -102.40125 L 348.331406 -67.678594 C 348.331406 -64.928594 346.100937 -62.698125 343.350937 -62.698125 Z M 343.350937 -62.698125 " transform="matrix(1, 0, 0, -1, 65.36, 107.88)"/>
</g>
<path fill-rule="nonzero" fill="rgb(79.998779%, 79.998779%, 100%)" fill-opacity="1" stroke-width="0.3985" stroke-linecap="butt" stroke-linejoin="miter" stroke="rgb(79.998779%, 79.998779%, 100%)" stroke-opacity="1" stroke-miterlimit="10" d="M 61.676594 -0.00009375 C 61.676594 2.749906 59.446125 4.980375 56.692219 4.980375 C 53.942219 4.980375 51.71175 2.749906 51.71175 -0.00009375 C 51.71175 -2.750094 53.942219 -4.980563 56.692219 -4.980563 C 59.446125 -4.980563 61.676594 -2.750094 61.676594 -0.00009375 Z M 61.676594 -0.00009375 " transform="matrix(1, 0, 0, -1, 292.132, 178.746)"/>
<path fill-rule="nonzero" fill="rgb(100%, 50%, 0%)" fill-opacity="1" stroke-width="0.3985" stroke-linecap="butt" stroke-linejoin="miter" stroke="rgb(100%, 50%, 0%)" stroke-opacity="1" stroke-miterlimit="10" d="M 4.981281 -0.00009375 C 4.981281 2.749906 2.750812 4.980375 0.0008125 4.980375 C -2.753094 4.980375 -4.979656 2.749906 -4.979656 -0.00009375 C -4.979656 -2.750094 -2.753094 -4.980563 0.0008125 -4.980563 C 2.750812 -4.980563 4.981281 -2.750094 4.981281 -0.00009375 Z M 4.981281 -0.00009375 " transform="matrix(1, 0, 0, -1, 292.132, 178.746)"/>
<path fill-rule="nonzero" fill="rgb(7.817078%, 64.082336%, 90.036011%)" fill-opacity="1" stroke-width="0.3985" stroke-linecap="butt" stroke-linejoin="miter" stroke="rgb(7.817078%, 64.082336%, 90.036011%)" stroke-opacity="1" stroke-miterlimit="10" d="M 33.328937 -0.00009375 C 33.328937 2.749906 31.098469 4.980375 28.348469 4.980375 C 25.594562 4.980375 23.364094 2.749906 23.364094 -0.00009375 C 23.364094 -2.750094 25.594562 -4.980563 28.348469 -4.980563 C 31.098469 -4.980563 33.328937 -2.750094 33.328937 -0.00009375 Z M 33.328937 -0.00009375 " transform="matrix(1, 0, 0, -1, 292.132, 178.746)"/>
<path fill-rule="nonzero" fill="rgb(71.136475%, 14.471436%, 11.114502%)" fill-opacity="1" stroke-width="0.3985" stroke-linecap="butt" stroke-linejoin="miter" stroke="rgb(71.136475%, 14.471436%, 11.114502%)" stroke-opacity="1" stroke-miterlimit="10" d="M 90.020344 -0.00009375 C 90.020344 2.749906 87.789875 4.980375 85.039875 4.980375 C 82.289875 4.980375 80.059406 2.749906 80.059406 -0.00009375 C 80.059406 -2.750094 82.289875 -4.980563 85.039875 -4.980563 C 87.789875 -4.980563 90.020344 -2.750094 90.020344 -0.00009375 Z M 90.020344 -0.00009375 " transform="matrix(1, 0, 0, -1, 292.132, 178.746)"/>
<path fill-rule="nonzero" fill="rgb(23.200989%, 48.974609%, 14.593506%)" fill-opacity="1" stroke-width="0.3985" stroke-linecap="butt" stroke-linejoin="miter" stroke="rgb(23.200989%, 48.974609%, 14.593506%)" stroke-opacity="1" stroke-miterlimit="10" d="M 118.368 -0.00009375 C 118.368 2.749906 116.137531 4.980375 113.387531 4.980375 C 110.637531 4.980375 108.407062 2.749906 108.407062 -0.00009375 C 108.407062 -2.750094 110.637531 -4.980563 113.387531 -4.980563 C 116.137531 -4.980563 118.368 -2.750094 118.368 -0.00009375 Z M 118.368 -0.00009375 " transform="matrix(1, 0, 0, -1, 292.132, 178.746)"/>
<path fill-rule="nonzero" fill="rgb(69.999695%, 69.999695%, 69.999695%)" fill-opacity="1" d="M 292.132812 202.113281 C 289.378906 202.113281 287.152344 204.339844 287.152344 207.09375 C 287.152344 209.84375 289.378906 212.074219 292.132812 212.074219 C 294.882812 212.074219 297.113281 209.84375 297.113281 207.09375 C 297.113281 204.339844 294.882812 202.113281 292.132812 202.113281 Z M 292.132812 202.113281 "/>
<g clip-path="url(#clip-1)">
<path fill="none" stroke-width="0.3985" stroke-linecap="butt" stroke-linejoin="miter" stroke="rgb(69.999695%, 69.999695%, 69.999695%)" stroke-opacity="1" stroke-miterlimit="10" d="M 0.0008125 -23.367281 C -2.753094 -23.367281 -4.979656 -25.593844 -4.979656 -28.34775 C -4.979656 -31.09775 -2.753094 -33.328219 0.0008125 -33.328219 C 2.750812 -33.328219 4.981281 -31.09775 4.981281 -28.34775 C 4.981281 -25.593844 2.750812 -23.367281 0.0008125 -23.367281 Z M 0.0008125 -23.367281 " transform="matrix(1, 0, 0, -1, 292.132, 178.746)"/>
</g>
<path fill-rule="nonzero" fill="rgb(69.999695%, 69.999695%, 69.999695%)" fill-opacity="1" d="M 320.480469 202.113281 C 317.726562 202.113281 315.496094 204.339844 315.496094 207.09375 C 315.496094 209.84375 317.726562 212.074219 320.480469 212.074219 C 323.230469 212.074219 325.460938 209.84375 325.460938 207.09375 C 325.460938 204.339844 323.230469 202.113281 320.480469 202.113281 Z M 320.480469 202.113281 "/>
<g clip-path="url(#clip-2)">
<path fill="none" stroke-width="0.3985" stroke-linecap="butt" stroke-linejoin="miter" stroke="rgb(69.999695%, 69.999695%, 69.999695%)" stroke-opacity="1" stroke-miterlimit="10" d="M 28.348469 -23.367281 C 25.594562 -23.367281 23.364094 -25.593844 23.364094 -28.34775 C 23.364094 -31.09775 25.594562 -33.328219 28.348469 -33.328219 C 31.098469 -33.328219 33.328937 -31.09775 33.328937 -28.34775 C 33.328937 -25.593844 31.098469 -23.367281 28.348469 -23.367281 Z M 28.348469 -23.367281 " transform="matrix(1, 0, 0, -1, 292.132, 178.746)"/>
</g>
<path fill-rule="nonzero" fill="rgb(69.999695%, 69.999695%, 69.999695%)" fill-opacity="1" d="M 348.824219 202.113281 C 346.074219 202.113281 343.84375 204.339844 343.84375 207.09375 C 343.84375 209.84375 346.074219 212.074219 348.824219 212.074219 C 351.578125 212.074219 353.808594 209.84375 353.808594 207.09375 C 353.808594 204.339844 351.578125 202.113281 348.824219 202.113281 Z M 348.824219 202.113281 "/>
<g clip-path="url(#clip-3)">
<path fill="none" stroke-width="0.3985" stroke-linecap="butt" stroke-linejoin="miter" stroke="rgb(69.999695%, 69.999695%, 69.999695%)" stroke-opacity="1" stroke-miterlimit="10" d="M 56.692219 -23.367281 C 53.942219 -23.367281 51.71175 -25.593844 51.71175 -28.34775 C 51.71175 -31.09775 53.942219 -33.328219 56.692219 -33.328219 C 59.446125 -33.328219 61.676594 -31.09775 61.676594 -28.34775 C 61.676594 -25.593844 59.446125 -23.367281 56.692219 -23.367281 Z M 56.692219 -23.367281 " transform="matrix(1, 0, 0, -1, 292.132, 178.746)"/>
</g>
<path fill-rule="nonzero" fill="rgb(69.999695%, 69.999695%, 69.999695%)" fill-opacity="1" d="M 377.171875 202.113281 C 374.421875 202.113281 372.191406 204.339844 372.191406 207.09375 C 372.191406 209.84375 374.421875 212.074219 377.171875 212.074219 C 379.921875 212.074219 382.152344 209.84375 382.152344 207.09375 C 382.152344 204.339844 379.921875 202.113281 377.171875 202.113281 Z M 377.171875 202.113281 "/>
<g clip-path="url(#clip-4)">
<path fill="none" stroke-width="0.3985" stroke-linecap="butt" stroke-linejoin="miter" stroke="rgb(69.999695%, 69.999695%, 69.999695%)" stroke-opacity="1" stroke-miterlimit="10" d="M 85.039875 -23.367281 C 82.289875 -23.367281 80.059406 -25.593844 80.059406 -28.34775 C 80.059406 -31.09775 82.289875 -33.328219 85.039875 -33.328219 C 87.789875 -33.328219 90.020344 -31.09775 90.020344 -28.34775 C 90.020344 -25.593844 87.789875 -23.367281 85.039875 -23.367281 Z M 85.039875 -23.367281 " transform="matrix(1, 0, 0, -1, 292.132, 178.746)"/>
</g>
<path fill-rule="nonzero" fill="rgb(69.999695%, 69.999695%, 69.999695%)" fill-opacity="1" d="M 405.519531 202.113281 C 402.769531 202.113281 400.539062 204.339844 400.539062 207.09375 C 400.539062 209.84375 402.769531 212.074219 405.519531 212.074219 C 408.269531 212.074219 410.5 209.84375 410.5 207.09375 C 410.5 204.339844 408.269531 202.113281 405.519531 202.113281 Z M 405.519531 202.113281 "/>
<g clip-path="url(#clip-5)">
<path fill="none" stroke-width="0.3985" stroke-linecap="butt" stroke-linejoin="miter" stroke="rgb(69.999695%, 69.999695%, 69.999695%)" stroke-opacity="1" stroke-miterlimit="10" d="M 113.387531 -23.367281 C 110.637531 -23.367281 108.407062 -25.593844 108.407062 -28.34775 C 108.407062 -31.09775 110.637531 -33.328219 113.387531 -33.328219 C 116.137531 -33.328219 118.368 -31.09775 118.368 -28.34775 C 118.368 -25.593844 116.137531 -23.367281 113.387531 -23.367281 Z M 113.387531 -23.367281 " transform="matrix(1, 0, 0, -1, 292.132, 178.746)"/>
</g>
<path fill="none" stroke-width="0.19925" stroke-linecap="butt" stroke-linejoin="miter" stroke="rgb(50%, 50%, 50%)" stroke-opacity="1" stroke-miterlimit="10" d="M 52.059406 -2.3165 L 5.1805 -25.757906 M 3.664875 -3.664156 L 23.168781 -23.168063 M 32.008625 -3.664156 L 51.512531 -23.168063 M 85.039875 -5.179781 L 85.039875 -23.168063 M 113.387531 -5.179781 L 113.387531 -23.168063 M 61.328937 -2.3165 L 108.207844 -25.757906 M 81.375812 -3.664156 L 61.871906 -23.168063 M 109.723469 -3.664156 L 90.219562 -23.168063 M 32.981281 -2.3165 L 79.860187 -25.757906 M 0.0008125 -5.179781 L 0.0008125 -23.168063 M 28.348469 -5.179781 L 28.348469 -23.168063 " transform="matrix(1, 0, 0, -1, 292.132, 178.746)"/>
<path fill="none" stroke-width="1.59404" stroke-linecap="butt" stroke-linejoin="miter" stroke="rgb(71.136475%, 14.471436%, 11.114502%)" stroke-opacity="1" stroke-miterlimit="10" d="M 85.039875 -5.179781 L 85.039875 -23.168063 " transform="matrix(1, 0, 0, -1, 292.132, 178.746)"/>
<g clip-path="url(#clip-6)">
<path fill="none" stroke-width="1.59404" stroke-linecap="butt" stroke-linejoin="miter" stroke="rgb(100%, 50%, 0%)" stroke-opacity="1" stroke-miterlimit="10" d="M 3.664875 -3.664156 L 23.168781 -23.168063 " transform="matrix(1, 0, 0, -1, 292.132, 178.746)"/>
</g>
<path fill="none" stroke-width="0.3985" stroke-linecap="butt" stroke-linejoin="miter" stroke="rgb(12.156677%, 59.999084%, 40.391541%)" stroke-opacity="1" stroke-miterlimit="10" d="M 141.73375 -22.842656 L 141.73375 -85.041875 L 217.710312 -85.041875 " transform="matrix(1, 0, 0, -1, 65.36, 107.88)"/>
<path fill="none" stroke-width="0.3985" stroke-linecap="round" stroke-linejoin="round" stroke="rgb(12.156677%, 59.999084%, 40.391541%)" stroke-opacity="1" stroke-miterlimit="10" d="M -2.072297 2.38917 C -1.693391 0.955576 -0.849641 0.279795 0.00192125 -0.001455 C -0.849641 -0.278799 -1.693391 -0.95458 -2.072297 -2.39208 " transform="matrix(1, 0, 0, -1, 283.26761, 192.92042)"/>
<g clip-path="url(#clip-7)">
<path fill="none" stroke-width="0.99628" stroke-linecap="butt" stroke-linejoin="miter" stroke="rgb(8.042908%, 60.865784%, 32.264709%)" stroke-opacity="1" stroke-miterlimit="10" d="M 485.085312 -62.698125 L 365.319687 -62.698125 C 362.569687 -62.698125 360.339219 -64.928594 360.339219 -67.678594 L 360.339219 -102.40125 C 360.339219 -105.15125 362.569687 -107.381719 365.319687 -107.381719 L 485.085312 -107.381719 C 487.835312 -107.381719 490.065781 -105.15125 490.065781 -102.40125 L 490.065781 -67.678594 C 490.065781 -64.928594 487.835312 -62.698125 485.085312 -62.698125 Z M 485.085312 -62.698125 " transform="matrix(1, 0, 0, -1, 65.36, 107.88)"/>
</g>
<path fill-rule="nonzero" fill="rgb(79.998779%, 79.998779%, 100%)" fill-opacity="1" stroke-width="0.3985" stroke-linecap="butt" stroke-linejoin="miter" stroke="rgb(79.998779%, 79.998779%, 100%)" stroke-opacity="1" stroke-miterlimit="10" d="M 61.675062 -0.00009375 C 61.675062 2.749906 59.444594 4.980375 56.694594 4.980375 C 53.940687 4.980375 51.714125 2.749906 51.714125 -0.00009375 C 51.714125 -2.750094 53.940687 -4.980563 56.694594 -4.980563 C 59.444594 -4.980563 61.675062 -2.750094 61.675062 -0.00009375 Z M 61.675062 -0.00009375 " transform="matrix(1, 0, 0, -1, 433.864, 178.746)"/>
<path fill-rule="nonzero" fill="rgb(100%, 50%, 0%)" fill-opacity="1" stroke-width="0.3985" stroke-linecap="butt" stroke-linejoin="miter" stroke="rgb(100%, 50%, 0%)" stroke-opacity="1" stroke-miterlimit="10" d="M 4.97975 -0.00009375 C 4.97975 2.749906 2.749281 4.980375 -0.00071875 4.980375 C -2.750719 4.980375 -4.981188 2.749906 -4.981188 -0.00009375 C -4.981188 -2.750094 -2.750719 -4.980563 -0.00071875 -4.980563 C 2.749281 -4.980563 4.97975 -2.750094 4.97975 -0.00009375 Z M 4.97975 -0.00009375 " transform="matrix(1, 0, 0, -1, 433.864, 178.746)"/>
<path fill-rule="nonzero" fill="rgb(7.817078%, 64.082336%, 90.036011%)" fill-opacity="1" stroke-width="0.3985" stroke-linecap="butt" stroke-linejoin="miter" stroke="rgb(7.817078%, 64.082336%, 90.036011%)" stroke-opacity="1" stroke-miterlimit="10" d="M 33.327406 -0.00009375 C 33.327406 2.749906 31.096937 4.980375 28.346937 4.980375 C 25.596937 4.980375 23.366469 2.749906 23.366469 -0.00009375 C 23.366469 -2.750094 25.596937 -4.980563 28.346937 -4.980563 C 31.096937 -4.980563 33.327406 -2.750094 33.327406 -0.00009375 Z M 33.327406 -0.00009375 " transform="matrix(1, 0, 0, -1, 433.864, 178.746)"/>
<path fill-rule="nonzero" fill="rgb(71.136475%, 14.471436%, 11.114502%)" fill-opacity="1" stroke-width="0.3985" stroke-linecap="butt" stroke-linejoin="miter" stroke="rgb(71.136475%, 14.471436%, 11.114502%)" stroke-opacity="1" stroke-miterlimit="10" d="M 90.022719 -0.00009375 C 90.022719 2.749906 87.79225 4.980375 85.04225 4.980375 C 82.288344 4.980375 80.057875 2.749906 80.057875 -0.00009375 C 80.057875 -2.750094 82.288344 -4.980563 85.04225 -4.980563 C 87.79225 -4.980563 90.022719 -2.750094 90.022719 -0.00009375 Z M 90.022719 -0.00009375 " transform="matrix(1, 0, 0, -1, 433.864, 178.746)"/>
<path fill-rule="nonzero" fill="rgb(23.200989%, 48.974609%, 14.593506%)" fill-opacity="1" stroke-width="0.3985" stroke-linecap="butt" stroke-linejoin="miter" stroke="rgb(23.200989%, 48.974609%, 14.593506%)" stroke-opacity="1" stroke-miterlimit="10" d="M 118.370375 -0.00009375 C 118.370375 2.749906 116.139906 4.980375 113.386 4.980375 C 110.636 4.980375 108.405531 2.749906 108.405531 -0.00009375 C 108.405531 -2.750094 110.636 -4.980563 113.386 -4.980563 C 116.139906 -4.980563 118.370375 -2.750094 118.370375 -0.00009375 Z M 118.370375 -0.00009375 " transform="matrix(1, 0, 0, -1, 433.864, 178.746)"/>
<path fill-rule="nonzero" fill="rgb(69.999695%, 69.999695%, 69.999695%)" fill-opacity="1" d="M 433.863281 202.113281 C 431.113281 202.113281 428.882812 204.339844 428.882812 207.09375 C 428.882812 209.84375 431.113281 212.074219 433.863281 212.074219 C 436.613281 212.074219 438.84375 209.84375 438.84375 207.09375 C 438.84375 204.339844 436.613281 202.113281 433.863281 202.113281 Z M 433.863281 202.113281 "/>
<g clip-path="url(#clip-8)">
<path fill="none" stroke-width="0.3985" stroke-linecap="butt" stroke-linejoin="miter" stroke="rgb(69.999695%, 69.999695%, 69.999695%)" stroke-opacity="1" stroke-miterlimit="10" d="M -0.00071875 -23.367281 C -2.750719 -23.367281 -4.981188 -25.593844 -4.981188 -28.34775 C -4.981188 -31.09775 -2.750719 -33.328219 -0.00071875 -33.328219 C 2.749281 -33.328219 4.97975 -31.09775 4.97975 -28.34775 C 4.97975 -25.593844 2.749281 -23.367281 -0.00071875 -23.367281 Z M -0.00071875 -23.367281 " transform="matrix(1, 0, 0, -1, 433.864, 178.746)"/>
</g>
<path fill-rule="nonzero" fill="rgb(69.999695%, 69.999695%, 69.999695%)" fill-opacity="1" d="M 462.210938 202.113281 C 459.460938 202.113281 457.230469 204.339844 457.230469 207.09375 C 457.230469 209.84375 459.460938 212.074219 462.210938 212.074219 C 464.960938 212.074219 467.191406 209.84375 467.191406 207.09375 C 467.191406 204.339844 464.960938 202.113281 462.210938 202.113281 Z M 462.210938 202.113281 "/>
<g clip-path="url(#clip-9)">
<path fill="none" stroke-width="0.3985" stroke-linecap="butt" stroke-linejoin="miter" stroke="rgb(69.999695%, 69.999695%, 69.999695%)" stroke-opacity="1" stroke-miterlimit="10" d="M 28.346937 -23.367281 C 25.596937 -23.367281 23.366469 -25.593844 23.366469 -28.34775 C 23.366469 -31.09775 25.596937 -33.328219 28.346937 -33.328219 C 31.096937 -33.328219 33.327406 -31.09775 33.327406 -28.34775 C 33.327406 -25.593844 31.096937 -23.367281 28.346937 -23.367281 Z M 28.346937 -23.367281 " transform="matrix(1, 0, 0, -1, 433.864, 178.746)"/>
</g>
<path fill-rule="nonzero" fill="rgb(69.999695%, 69.999695%, 69.999695%)" fill-opacity="1" d="M 490.558594 202.113281 C 487.804688 202.113281 485.578125 204.339844 485.578125 207.09375 C 485.578125 209.84375 487.804688 212.074219 490.558594 212.074219 C 493.308594 212.074219 495.539062 209.84375 495.539062 207.09375 C 495.539062 204.339844 493.308594 202.113281 490.558594 202.113281 Z M 490.558594 202.113281 "/>
<g clip-path="url(#clip-10)">
<path fill="none" stroke-width="0.3985" stroke-linecap="butt" stroke-linejoin="miter" stroke="rgb(69.999695%, 69.999695%, 69.999695%)" stroke-opacity="1" stroke-miterlimit="10" d="M 56.694594 -23.367281 C 53.940687 -23.367281 51.714125 -25.593844 51.714125 -28.34775 C 51.714125 -31.09775 53.940687 -33.328219 56.694594 -33.328219 C 59.444594 -33.328219 61.675062 -31.09775 61.675062 -28.34775 C 61.675062 -25.593844 59.444594 -23.367281 56.694594 -23.367281 Z M 56.694594 -23.367281 " transform="matrix(1, 0, 0, -1, 433.864, 178.746)"/>
</g>
<path fill-rule="nonzero" fill="rgb(69.999695%, 69.999695%, 69.999695%)" fill-opacity="1" d="M 518.90625 202.113281 C 516.152344 202.113281 513.921875 204.339844 513.921875 207.09375 C 513.921875 209.84375 516.152344 212.074219 518.90625 212.074219 C 521.65625 212.074219 523.886719 209.84375 523.886719 207.09375 C 523.886719 204.339844 521.65625 202.113281 518.90625 202.113281 Z M 518.90625 202.113281 "/>
<g clip-path="url(#clip-11)">
<path fill="none" stroke-width="0.3985" stroke-linecap="butt" stroke-linejoin="miter" stroke="rgb(69.999695%, 69.999695%, 69.999695%)" stroke-opacity="1" stroke-miterlimit="10" d="M 85.04225 -23.367281 C 82.288344 -23.367281 80.057875 -25.593844 80.057875 -28.34775 C 80.057875 -31.09775 82.288344 -33.328219 85.04225 -33.328219 C 87.79225 -33.328219 90.022719 -31.09775 90.022719 -28.34775 C 90.022719 -25.593844 87.79225 -23.367281 85.04225 -23.367281 Z M 85.04225 -23.367281 " transform="matrix(1, 0, 0, -1, 433.864, 178.746)"/>
</g>
<path fill-rule="nonzero" fill="rgb(69.999695%, 69.999695%, 69.999695%)" fill-opacity="1" d="M 547.25 202.113281 C 544.5 202.113281 542.269531 204.339844 542.269531 207.09375 C 542.269531 209.84375 544.5 212.074219 547.25 212.074219 C 550.003906 212.074219 552.234375 209.84375 552.234375 207.09375 C 552.234375 204.339844 550.003906 202.113281 547.25 202.113281 Z M 547.25 202.113281 "/>
<g clip-path="url(#clip-12)">
<path fill="none" stroke-width="0.3985" stroke-linecap="butt" stroke-linejoin="miter" stroke="rgb(69.999695%, 69.999695%, 69.999695%)" stroke-opacity="1" stroke-miterlimit="10" d="M 113.386 -23.367281 C 110.636 -23.367281 108.405531 -25.593844 108.405531 -28.34775 C 108.405531 -31.09775 110.636 -33.328219 113.386 -33.328219 C 116.139906 -33.328219 118.370375 -31.09775 118.370375 -28.34775 C 118.370375 -25.593844 116.139906 -23.367281 113.386 -23.367281 Z M 113.386 -23.367281 " transform="matrix(1, 0, 0, -1, 433.864, 178.746)"/>
</g>
<path fill="none" stroke-width="0.19925" stroke-linecap="butt" stroke-linejoin="miter" stroke="rgb(50%, 50%, 50%)" stroke-opacity="1" stroke-miterlimit="10" d="M 52.061781 -2.3165 L 5.178969 -25.757906 M 3.663344 -3.664156 L 23.16725 -23.168063 M 32.011 -3.664156 L 51.514906 -23.168063 M 85.04225 -5.179781 L 85.04225 -23.168063 M 113.386 -5.179781 L 113.386 -23.168063 M 61.327406 -2.3165 L 108.206312 -25.757906 M 81.378187 -3.664156 L 61.874281 -23.168063 M 109.725844 -3.664156 L 90.221937 -23.168063 M 32.97975 -2.3165 L 79.858656 -25.757906 M -0.00071875 -5.179781 L -0.00071875 -23.168063 M 28.346937 -5.179781 L 28.346937 -23.168063 " transform="matrix(1, 0, 0, -1, 433.864, 178.746)"/>
<path fill="none" stroke-width="1.59404" stroke-linecap="butt" stroke-linejoin="miter" stroke="rgb(71.136475%, 14.471436%, 11.114502%)" stroke-opacity="1" stroke-miterlimit="10" d="M 85.04225 -5.179781 L 85.04225 -23.168063 " transform="matrix(1, 0, 0, -1, 433.864, 178.746)"/>
<g clip-path="url(#clip-13)">
<path fill="none" stroke-width="1.59404" stroke-linecap="butt" stroke-linejoin="miter" stroke="rgb(100%, 50%, 0%)" stroke-opacity="1" stroke-miterlimit="10" d="M 3.663344 -3.664156 L 23.16725 -23.168063 " transform="matrix(1, 0, 0, -1, 433.864, 178.746)"/>
</g>
<g clip-path="url(#clip-14)">
<path fill="none" stroke-width="1.59404" stroke-linecap="butt" stroke-linejoin="miter" stroke="rgb(79.998779%, 79.998779%, 100%)" stroke-opacity="1" stroke-miterlimit="10" d="M 52.061781 -2.3165 L 5.178969 -25.757906 " transform="matrix(1, 0, 0, -1, 433.864, 178.746)"/>
</g>
<path fill="none" stroke-width="0.3985" stroke-linecap="butt" stroke-linejoin="miter" stroke="rgb(12.156677%, 59.999084%, 40.391541%)" stroke-opacity="1" stroke-miterlimit="10" d="M 348.8275 -85.041875 L 359.440781 -85.041875 " transform="matrix(1, 0, 0, -1, 65.36, 107.88)"/>
<path fill="none" stroke-width="0.3985" stroke-linecap="round" stroke-linejoin="round" stroke="rgb(12.156677%, 59.999084%, 40.391541%)" stroke-opacity="1" stroke-miterlimit="10" d="M -2.071973 2.38917 C -1.693066 0.955576 -0.849316 0.279795 -0.00166 -0.001455 C -0.849316 -0.278799 -1.693066 -0.95458 -2.071973 -2.39208 " transform="matrix(1, 0, 0, -1, 425.00166, 192.92042)"/>
<g clip-path="url(#clip-15)">
<path fill="none" stroke-width="0.99628" stroke-linecap="butt" stroke-linejoin="miter" stroke="rgb(8.042908%, 60.865784%, 32.264709%)" stroke-opacity="1" stroke-miterlimit="10" d="M 626.819687 -62.698125 L 507.054062 -62.698125 C 504.304062 -62.698125 502.073594 -64.928594 502.073594 -67.678594 L 502.073594 -102.40125 C 502.073594 -105.15125 504.304062 -107.381719 507.054062 -107.381719 L 626.819687 -107.381719 C 629.569687 -107.381719 631.800156 -105.15125 631.800156 -102.40125 L 631.800156 -67.678594 C 631.800156 -64.928594 629.569687 -62.698125 626.819687 -62.698125 Z M 626.819687 -62.698125 " transform="matrix(1, 0, 0, -1, 65.36, 107.88)"/>
</g>
<path fill-rule="nonzero" fill="rgb(79.998779%, 79.998779%, 100%)" fill-opacity="1" stroke-width="0.3985" stroke-linecap="butt" stroke-linejoin="miter" stroke="rgb(79.998779%, 79.998779%, 100%)" stroke-opacity="1" stroke-miterlimit="10" d="M 61.673531 -0.00009375 C 61.673531 2.749906 59.443063 4.980375 56.693063 4.980375 C 53.943063 4.980375 51.712594 2.749906 51.712594 -0.00009375 C 51.712594 -2.750094 53.943063 -4.980563 56.693063 -4.980563 C 59.443063 -4.980563 61.673531 -2.750094 61.673531 -0.00009375 Z M 61.673531 -0.00009375 " transform="matrix(1, 0, 0, -1, 575.596, 178.746)"/>
<path fill-rule="nonzero" fill="rgb(100%, 50%, 0%)" fill-opacity="1" stroke-width="0.3985" stroke-linecap="butt" stroke-linejoin="miter" stroke="rgb(100%, 50%, 0%)" stroke-opacity="1" stroke-miterlimit="10" d="M 4.982125 -0.00009375 C 4.982125 2.749906 2.751656 4.980375 0.00165625 4.980375 C -2.75225 4.980375 -4.982719 2.749906 -4.982719 -0.00009375 C -4.982719 -2.750094 -2.75225 -4.980563 0.00165625 -4.980563 C 2.751656 -4.980563 4.982125 -2.750094 4.982125 -0.00009375 Z M 4.982125 -0.00009375 " transform="matrix(1, 0, 0, -1, 575.596, 178.746)"/>
<path fill-rule="nonzero" fill="rgb(7.817078%, 64.082336%, 90.036011%)" fill-opacity="1" stroke-width="0.3985" stroke-linecap="butt" stroke-linejoin="miter" stroke="rgb(7.817078%, 64.082336%, 90.036011%)" stroke-opacity="1" stroke-miterlimit="10" d="M 33.329781 -0.00009375 C 33.329781 2.749906 31.099313 4.980375 28.345406 4.980375 C 25.595406 4.980375 23.364938 2.749906 23.364938 -0.00009375 C 23.364938 -2.750094 25.595406 -4.980563 28.345406 -4.980563 C 31.099313 -4.980563 33.329781 -2.750094 33.329781 -0.00009375 Z M 33.329781 -0.00009375 " transform="matrix(1, 0, 0, -1, 575.596, 178.746)"/>
<path fill-rule="nonzero" fill="rgb(71.136475%, 14.471436%, 11.114502%)" fill-opacity="1" stroke-width="0.3985" stroke-linecap="butt" stroke-linejoin="miter" stroke="rgb(71.136475%, 14.471436%, 11.114502%)" stroke-opacity="1" stroke-miterlimit="10" d="M 90.021188 -0.00009375 C 90.021188 2.749906 87.790719 4.980375 85.040719 4.980375 C 82.290719 4.980375 80.06025 2.749906 80.06025 -0.00009375 C 80.06025 -2.750094 82.290719 -4.980563 85.040719 -4.980563 C 87.790719 -4.980563 90.021188 -2.750094 90.021188 -0.00009375 Z M 90.021188 -0.00009375 " transform="matrix(1, 0, 0, -1, 575.596, 178.746)"/>
<path fill-rule="nonzero" fill="rgb(23.200989%, 48.974609%, 14.593506%)" fill-opacity="1" d="M 693.964844 178.746094 C 693.964844 175.996094 691.734375 173.765625 688.984375 173.765625 C 686.230469 173.765625 684 175.996094 684 178.746094 C 684 181.496094 686.230469 183.726562 688.984375 183.726562 C 691.734375 183.726562 693.964844 181.496094 693.964844 178.746094 Z M 693.964844 178.746094 "/>
<g clip-path="url(#clip-16)">
<path fill="none" stroke-width="0.3985" stroke-linecap="butt" stroke-linejoin="miter" stroke="rgb(23.200989%, 48.974609%, 14.593506%)" stroke-opacity="1" stroke-miterlimit="10" d="M 118.368844 -0.00009375 C 118.368844 2.749906 116.138375 4.980375 113.388375 4.980375 C 110.634469 4.980375 108.404 2.749906 108.404 -0.00009375 C 108.404 -2.750094 110.634469 -4.980563 113.388375 -4.980563 C 116.138375 -4.980563 118.368844 -2.750094 118.368844 -0.00009375 Z M 118.368844 -0.00009375 " transform="matrix(1, 0, 0, -1, 575.596, 178.746)"/>
</g>
<path fill-rule="nonzero" fill="rgb(69.999695%, 69.999695%, 69.999695%)" fill-opacity="1" d="M 575.597656 202.113281 C 572.84375 202.113281 570.613281 204.339844 570.613281 207.09375 C 570.613281 209.84375 572.84375 212.074219 575.597656 212.074219 C 578.347656 212.074219 580.578125 209.84375 580.578125 207.09375 C 580.578125 204.339844 578.347656 202.113281 575.597656 202.113281 Z M 575.597656 202.113281 "/>
<g clip-path="url(#clip-17)">
<path fill="none" stroke-width="0.3985" stroke-linecap="butt" stroke-linejoin="miter" stroke="rgb(69.999695%, 69.999695%, 69.999695%)" stroke-opacity="1" stroke-miterlimit="10" d="M 0.00165625 -23.367281 C -2.75225 -23.367281 -4.982719 -25.593844 -4.982719 -28.34775 C -4.982719 -31.09775 -2.75225 -33.328219 0.00165625 -33.328219 C 2.751656 -33.328219 4.982125 -31.09775 4.982125 -28.34775 C 4.982125 -25.593844 2.751656 -23.367281 0.00165625 -23.367281 Z M 0.00165625 -23.367281 " transform="matrix(1, 0, 0, -1, 575.596, 178.746)"/>
</g>
<path fill-rule="nonzero" fill="rgb(69.999695%, 69.999695%, 69.999695%)" fill-opacity="1" d="M 603.941406 202.113281 C 601.191406 202.113281 598.960938 204.339844 598.960938 207.09375 C 598.960938 209.84375 601.191406 212.074219 603.941406 212.074219 C 606.695312 212.074219 608.925781 209.84375 608.925781 207.09375 C 608.925781 204.339844 606.695312 202.113281 603.941406 202.113281 Z M 603.941406 202.113281 "/>
<g clip-path="url(#clip-18)">
<path fill="none" stroke-width="0.3985" stroke-linecap="butt" stroke-linejoin="miter" stroke="rgb(69.999695%, 69.999695%, 69.999695%)" stroke-opacity="1" stroke-miterlimit="10" d="M 28.345406 -23.367281 C 25.595406 -23.367281 23.364938 -25.593844 23.364938 -28.34775 C 23.364938 -31.09775 25.595406 -33.328219 28.345406 -33.328219 C 31.099313 -33.328219 33.329781 -31.09775 33.329781 -28.34775 C 33.329781 -25.593844 31.099313 -23.367281 28.345406 -23.367281 Z M 28.345406 -23.367281 " transform="matrix(1, 0, 0, -1, 575.596, 178.746)"/>
</g>
<path fill-rule="nonzero" fill="rgb(69.999695%, 69.999695%, 69.999695%)" fill-opacity="1" d="M 632.289062 202.113281 C 629.539062 202.113281 627.308594 204.339844 627.308594 207.09375 C 627.308594 209.84375 629.539062 212.074219 632.289062 212.074219 C 635.039062 212.074219 637.269531 209.84375 637.269531 207.09375 C 637.269531 204.339844 635.039062 202.113281 632.289062 202.113281 Z M 632.289062 202.113281 "/>
<g clip-path="url(#clip-19)">
<path fill="none" stroke-width="0.3985" stroke-linecap="butt" stroke-linejoin="miter" stroke="rgb(69.999695%, 69.999695%, 69.999695%)" stroke-opacity="1" stroke-miterlimit="10" d="M 56.693063 -23.367281 C 53.943063 -23.367281 51.712594 -25.593844 51.712594 -28.34775 C 51.712594 -31.09775 53.943063 -33.328219 56.693063 -33.328219 C 59.443063 -33.328219 61.673531 -31.09775 61.673531 -28.34775 C 61.673531 -25.593844 59.443063 -23.367281 56.693063 -23.367281 Z M 56.693063 -23.367281 " transform="matrix(1, 0, 0, -1, 575.596, 178.746)"/>
</g>
<path fill-rule="nonzero" fill="rgb(69.999695%, 69.999695%, 69.999695%)" fill-opacity="1" d="M 660.636719 202.113281 C 657.886719 202.113281 655.65625 204.339844 655.65625 207.09375 C 655.65625 209.84375 657.886719 212.074219 660.636719 212.074219 C 663.386719 212.074219 665.617188 209.84375 665.617188 207.09375 C 665.617188 204.339844 663.386719 202.113281 660.636719 202.113281 Z M 660.636719 202.113281 "/>
<g clip-path="url(#clip-20)">
<path fill="none" stroke-width="0.3985" stroke-linecap="butt" stroke-linejoin="miter" stroke="rgb(69.999695%, 69.999695%, 69.999695%)" stroke-opacity="1" stroke-miterlimit="10" d="M 85.040719 -23.367281 C 82.290719 -23.367281 80.06025 -25.593844 80.06025 -28.34775 C 80.06025 -31.09775 82.290719 -33.328219 85.040719 -33.328219 C 87.790719 -33.328219 90.021188 -31.09775 90.021188 -28.34775 C 90.021188 -25.593844 87.790719 -23.367281 85.040719 -23.367281 Z M 85.040719 -23.367281 " transform="matrix(1, 0, 0, -1, 575.596, 178.746)"/>
</g>
<path fill-rule="nonzero" fill="rgb(69.999695%, 69.999695%, 69.999695%)" fill-opacity="1" d="M 688.984375 202.113281 C 686.230469 202.113281 684 204.339844 684 207.09375 C 684 209.84375 686.230469 212.074219 688.984375 212.074219 C 691.734375 212.074219 693.964844 209.84375 693.964844 207.09375 C 693.964844 204.339844 691.734375 202.113281 688.984375 202.113281 Z M 688.984375 202.113281 "/>
<g clip-path="url(#clip-21)">
<path fill="none" stroke-width="0.3985" stroke-linecap="butt" stroke-linejoin="miter" stroke="rgb(69.999695%, 69.999695%, 69.999695%)" stroke-opacity="1" stroke-miterlimit="10" d="M 113.388375 -23.367281 C 110.634469 -23.367281 108.404 -25.593844 108.404 -28.34775 C 108.404 -31.09775 110.634469 -33.328219 113.388375 -33.328219 C 116.138375 -33.328219 118.368844 -31.09775 118.368844 -28.34775 C 118.368844 -25.593844 116.138375 -23.367281 113.388375 -23.367281 Z M 113.388375 -23.367281 " transform="matrix(1, 0, 0, -1, 575.596, 178.746)"/>
</g>
<path fill="none" stroke-width="0.19925" stroke-linecap="butt" stroke-linejoin="miter" stroke="rgb(50%, 50%, 50%)" stroke-opacity="1" stroke-miterlimit="10" d="M 52.06025 -2.3165 L 5.181344 -25.757906 M 3.661813 -3.664156 L 23.165719 -23.168063 M 32.009469 -3.664156 L 51.513375 -23.168063 M 85.040719 -5.179781 L 85.040719 -23.168063 M 113.388375 -5.179781 L 113.388375 -23.168063 M 61.325875 -2.3165 L 108.204781 -25.757906 M 81.376656 -3.664156 L 61.87275 -23.168063 M 109.724313 -3.664156 L 90.220406 -23.168063 M 32.982125 -2.3165 L 79.861031 -25.757906 M 0.00165625 -5.179781 L 0.00165625 -23.168063 M 28.345406 -5.179781 L 28.345406 -23.168063 " transform="matrix(1, 0, 0, -1, 575.596, 178.746)"/>
<path fill="none" stroke-width="1.59404" stroke-linecap="butt" stroke-linejoin="miter" stroke="rgb(71.136475%, 14.471436%, 11.114502%)" stroke-opacity="1" stroke-miterlimit="10" d="M 85.040719 -5.179781 L 85.040719 -23.168063 " transform="matrix(1, 0, 0, -1, 575.596, 178.746)"/>
<g clip-path="url(#clip-22)">
<path fill="none" stroke-width="1.59404" stroke-linecap="butt" stroke-linejoin="miter" stroke="rgb(100%, 50%, 0%)" stroke-opacity="1" stroke-miterlimit="10" d="M 3.661813 -3.664156 L 23.165719 -23.168063 " transform="matrix(1, 0, 0, -1, 575.596, 178.746)"/>
</g>
<g clip-path="url(#clip-23)">
<path fill="none" stroke-width="1.59404" stroke-linecap="butt" stroke-linejoin="miter" stroke="rgb(79.998779%, 79.998779%, 100%)" stroke-opacity="1" stroke-miterlimit="10" d="M 52.06025 -2.3165 L 5.181344 -25.757906 " transform="matrix(1, 0, 0, -1, 575.596, 178.746)"/>
</g>
<g clip-path="url(#clip-24)">
<path fill="none" stroke-width="1.59404" stroke-linecap="butt" stroke-linejoin="miter" stroke="rgb(7.817078%, 64.082336%, 90.036011%)" stroke-opacity="1" stroke-miterlimit="10" d="M 32.009469 -3.664156 L 51.513375 -23.168063 " transform="matrix(1, 0, 0, -1, 575.596, 178.746)"/>
</g>
<path fill="none" stroke-width="1.59404" stroke-linecap="butt" stroke-linejoin="miter" stroke="rgb(23.200989%, 48.974609%, 14.593506%)" stroke-opacity="1" stroke-miterlimit="10" d="M 113.388375 -5.179781 L 113.388375 -23.168063 " transform="matrix(1, 0, 0, -1, 575.596, 178.746)"/>
<path fill="none" stroke-width="0.3985" stroke-linecap="butt" stroke-linejoin="miter" stroke="rgb(12.156677%, 59.999084%, 40.391541%)" stroke-opacity="1" stroke-miterlimit="10" d="M 490.561875 -85.041875 L 501.175156 -85.041875 " transform="matrix(1, 0, 0, -1, 65.36, 107.88)"/>
<path fill="none" stroke-width="0.3985" stroke-linecap="round" stroke-linejoin="round" stroke="rgb(12.156677%, 59.999084%, 40.391541%)" stroke-opacity="1" stroke-miterlimit="10" d="M -2.071658 2.38917 C -1.692751 0.955576 -0.849001 0.279795 -0.001345 -0.001455 C -0.849001 -0.278799 -1.692751 -0.95458 -2.071658 -2.39208 " transform="matrix(1, 0, 0, -1, 566.73572, 192.92042)"/>
</svg>
